<svg width="72" height="72" viewBox="0 0 72 72" fill="none" xmlns="http://www.w3.org/2000/svg">
<g clip-path="url(#clip0_12_428)">
<path fill-rule="evenodd" clip-rule="evenodd" d="M25.5374 33.7619C32.1557 37.4134 38.8126 45.4052 40.8301 53.1216C40.2891 41.3821 34.8787 30.3316 25.9031 22.608C21.9512 24.769 18.9377 28.0413 17.0919 31.8575C19.6142 31.3456 22.5704 32.1104 25.5367 33.7612L25.5374 33.7619Z" fill="url(#paint0_linear_12_428)"/>
<path fill-rule="evenodd" clip-rule="evenodd" d="M34.6353 12.4496C43.1879 24.7314 46.049 40.0456 42.5056 54.4375C49.3016 39.6613 48.8834 22.5105 41.3649 7.90558C36.6503 6.94742 31.8123 6.86787 27.0875 7.67635C28.2655 9.31511 29.3199 11.0416 30.2653 12.8133C31.7105 12.6087 33.1637 12.4782 34.6353 12.4496Z" fill="url(#paint1_linear_12_428)"/>
<path fill-rule="evenodd" clip-rule="evenodd" d="M42.5054 54.4374C46.8957 39.1154 43.7695 23.7006 35.2069 11.4106C33.7452 11.4475 31.6513 11.594 30.2651 12.8132C27.3482 13.254 24.5154 14.0756 21.8128 15.2633C34.4886 24.4065 42.1596 38.9326 42.5054 54.4374Z" fill="url(#paint2_linear_12_428)"/>
<path fill-rule="evenodd" clip-rule="evenodd" d="M48.9251 18.0124C51.9623 30.1491 50.6267 42.9221 45.1356 54.0492C51.0227 46.5435 53.9954 38.1193 53.5324 28.7715C54.6132 29.3995 54.562 29.6497 55.7282 29.8828C56.2341 27.9612 56.5171 25.9921 56.5437 23.9986C54.3212 21.6247 51.7449 19.6095 48.9251 18.0124Z" fill="url(#paint3_linear_12_428)"/>
<path fill-rule="evenodd" clip-rule="evenodd" d="M52.7647 27.7863C53.2277 37.1341 50.5633 46.4003 45.1344 54.0482C51.332 48.1976 55.9294 40.8559 58.5028 32.7003C57.6279 31.6587 56.7152 30.7242 55.7268 29.8818C54.8201 29.1075 53.8462 28.4136 52.7647 27.7863Z" fill="url(#paint4_linear_12_428)"/>
<path fill-rule="evenodd" clip-rule="evenodd" d="M51.704 25.8826C52.6733 35.7732 50.3722 45.6715 45.1348 54.0485C50.5644 46.4013 53.2287 37.1336 52.7652 27.7867C53.8466 28.4139 54.8205 29.1079 55.7273 29.8822C55.8245 29.5151 55.9216 29.148 55.9894 28.7742C54.6468 27.6869 53.2127 26.7293 51.704 25.8826Z" fill="url(#paint5_linear_12_428)"/>
<path fill-rule="evenodd" clip-rule="evenodd" d="M56.2739 30.3566C54.5871 39.0798 50.7658 47.2253 45.1349 54.0498C51.3324 48.1993 55.9298 40.8574 58.5032 32.702C57.7977 31.854 57.0521 31.0757 56.2739 30.3566Z" fill="url(#paint6_linear_12_428)"/>
<path fill-rule="evenodd" clip-rule="evenodd" d="M42.5053 54.4373C49.3014 39.6611 48.8831 22.5103 41.3646 7.90539C39.5511 7.52725 37.7229 7.29222 35.8886 7.1897C46.2331 20.7953 48.7386 38.726 42.5053 54.4373Z" fill="url(#paint7_linear_12_428)"/>
<path fill-rule="evenodd" clip-rule="evenodd" d="M42.3661 54.4662C47.1535 39.9139 44.5307 23.8564 35.3332 11.3988C33.5482 11.4139 31.6481 11.5033 29.8715 11.8196C30.0417 12.1361 30.2119 12.4542 30.382 12.7708C31.8282 12.5745 33.2829 12.4529 34.754 12.4341C43.2319 24.7667 45.9987 40.0976 42.3661 54.4662Z" fill="url(#paint8_linear_12_428)"/>
<path fill-rule="evenodd" clip-rule="evenodd" d="M42.5054 54.4374C44.0249 39.354 38.863 24.2885 28.3691 13.1594C26.1267 13.629 23.9263 14.341 21.812 15.2627C34.4878 24.4059 42.1596 38.9326 42.5054 54.4374Z" fill="url(#paint9_linear_12_428)"/>
<path fill-rule="evenodd" clip-rule="evenodd" d="M40.8302 53.1217C40.2893 41.3823 34.8788 30.3317 25.9033 22.6082C23.9448 23.6778 22.2386 25.0092 20.7606 26.549C29.3255 27.4324 39.4604 41.3291 40.8296 53.1225L40.8302 53.1217Z" fill="url(#paint10_linear_12_428)"/>
<path fill-rule="evenodd" clip-rule="evenodd" d="M40.83 53.1216C39.1521 44.9987 32.3792 36.6859 25.7603 33.035C22.7947 31.3836 19.8962 30.7369 17.0926 31.8581C19.6149 31.3461 22.5711 32.111 25.5374 33.7618C32.1557 37.4133 38.8126 45.4051 40.83 53.1216Z" fill="url(#paint11_linear_12_428)"/>
</g>
<defs>
<linearGradient id="paint0_linear_12_428" x1="39.3566" y1="57.5266" x2="17.2775" y2="15.1354" gradientUnits="userSpaceOnUse">
<stop stop-color="#FF1727"/>
<stop offset="1" stop-color="#F9FEC6"/>
</linearGradient>
<linearGradient id="paint1_linear_12_428" x1="36.2591" y1="4.15782" x2="38.7866" y2="58.0509" gradientUnits="userSpaceOnUse">
<stop stop-color="#FF54FF"/>
<stop offset="0.49" stop-color="#9C00BF"/>
<stop offset="1" stop-color="#5A00A9"/>
</linearGradient>
<linearGradient id="paint2_linear_12_428" x1="47.6189" y1="59.8573" x2="27.4281" y2="6.55749" gradientUnits="userSpaceOnUse">
<stop stop-color="#ED1C24"/>
<stop offset="1" stop-color="#FCEE21"/>
</linearGradient>
<linearGradient id="paint3_linear_12_428" x1="55.6756" y1="9.74729" x2="43.7752" y2="57.5652" gradientUnits="userSpaceOnUse">
<stop stop-color="#67FFE5"/>
<stop offset="0.32" stop-color="#00B0D4"/>
<stop offset="0.7" stop-color="#0070BF"/>
<stop offset="1" stop-color="#003CA9"/>
</linearGradient>
<linearGradient id="paint4_linear_12_428" x1="47.4142" y1="52.3354" x2="57.9237" y2="25.0338" gradientUnits="userSpaceOnUse">
<stop stop-color="#00A8C5"/>
<stop offset="0.33" stop-color="#89D776"/>
<stop offset="1" stop-color="#FFFF00"/>
</linearGradient>
<linearGradient id="paint5_linear_12_428" x1="59.1912" y1="4.66477" x2="47.2908" y2="52.4827" gradientUnits="userSpaceOnUse">
<stop stop-color="#67FFE5"/>
<stop offset="0.32" stop-color="#00B0D4"/>
<stop offset="0.7" stop-color="#0070BF"/>
<stop offset="1" stop-color="#003CA9"/>
</linearGradient>
<linearGradient id="paint6_linear_12_428" x1="49.9716" y1="48.4158" x2="60.4811" y2="21.1143" gradientUnits="userSpaceOnUse">
<stop stop-color="#00A8C5"/>
<stop offset="0.33" stop-color="#89D776"/>
<stop offset="1" stop-color="#FFFF00"/>
</linearGradient>
<linearGradient id="paint7_linear_12_428" x1="41.0841" y1="10.6891" x2="43.6123" y2="64.5813" gradientUnits="userSpaceOnUse">
<stop stop-color="#FF54FF"/>
<stop offset="0.49" stop-color="#9C00BF"/>
<stop offset="1" stop-color="#5A00A9"/>
</linearGradient>
<linearGradient id="paint8_linear_12_428" x1="35.7384" y1="-2.42706" x2="37.9274" y2="51.474" gradientUnits="userSpaceOnUse">
<stop stop-color="#FF0000"/>
<stop offset="0.49" stop-color="#9C00BF"/>
<stop offset="1" stop-color="#5A00A9"/>
</linearGradient>
<linearGradient id="paint9_linear_12_428" x1="48.8829" y1="69.3828" x2="28.6914" y2="16.0838" gradientUnits="userSpaceOnUse">
<stop stop-color="#ED1C24"/>
<stop offset="1" stop-color="#FCEE21"/>
</linearGradient>
<linearGradient id="paint10_linear_12_428" x1="38.726" y1="50.2659" x2="16.6482" y2="7.87462" gradientUnits="userSpaceOnUse">
<stop stop-color="#FF1727"/>
<stop offset="1" stop-color="#F9FEC6"/>
</linearGradient>
<linearGradient id="paint11_linear_12_428" x1="41.4472" y1="64.7744" x2="19.3689" y2="22.3838" gradientUnits="userSpaceOnUse">
<stop stop-color="#FF1727"/>
<stop offset="1" stop-color="#F9FEC6"/>
</linearGradient>
<clipPath id="clip0_12_428">
<rect width="50" height="50" fill="white" transform="translate(0.785729 39.1552) rotate(-50.12)"/>
</clipPath>
</defs>
</svg>
