<svg width="164" height="50" viewBox="0 0 164 50" fill="none" xmlns="http://www.w3.org/2000/svg">
<g clip-path="url(#clip0_12_382)">
<path fill-rule="evenodd" clip-rule="evenodd" d="M19.1905 28.975C25.8085 32.627 32.4648 40.6193 34.4816 48.3359C33.9415 36.5964 28.532 25.5454 19.557 17.8211C15.605 19.9818 12.5912 23.2538 10.7452 27.0699C13.2675 26.5582 16.2236 27.3232 19.1897 28.9743L19.1905 28.975Z" fill="url(#paint0_linear_12_382)"/>
<path fill-rule="evenodd" clip-rule="evenodd" d="M28.2901 7.6634C36.8417 19.9458 39.7015 35.2603 36.157 49.6519C42.9541 34.8762 42.5373 17.7254 35.02 3.11992C30.3055 2.16138 25.4675 2.08144 20.7426 2.88954C21.9206 4.52839 22.9747 6.25499 23.92 8.02676C25.3653 7.82226 26.8185 7.69189 28.2901 7.6634Z" fill="url(#paint1_linear_12_382)"/>
<path fill-rule="evenodd" clip-rule="evenodd" d="M36.1568 49.6518C40.5483 34.3302 37.4234 18.9151 28.8618 6.62448C27.4001 6.66124 25.3061 6.80752 23.9199 8.02665C21.0029 8.46718 18.17 9.28864 15.4673 10.4761C28.1424 19.6203 35.8122 34.147 36.1568 49.6518Z" fill="url(#paint2_linear_12_382)"/>
<path fill-rule="evenodd" clip-rule="evenodd" d="M42.5794 13.2274C45.6157 25.3642 44.279 38.1372 38.787 49.2639C44.6748 41.7587 47.6481 33.3346 47.1859 23.9868C48.2667 24.6149 48.2154 24.8651 49.3816 25.0983C49.8876 23.1767 50.1707 21.2077 50.1975 19.2141C47.9752 16.84 45.3991 14.8247 42.5794 13.2274Z" fill="url(#paint3_linear_12_382)"/>
<path fill-rule="evenodd" clip-rule="evenodd" d="M46.4182 23.0016C46.8805 32.3494 44.2153 41.6154 38.7858 49.2628C44.9839 43.4127 49.5819 36.0714 52.1559 27.916C51.2812 26.8744 50.3685 25.9398 49.3802 25.0973C48.4735 24.323 47.4997 23.6289 46.4182 23.0016Z" fill="url(#paint4_linear_12_382)"/>
<path fill-rule="evenodd" clip-rule="evenodd" d="M45.3577 21.0978C46.3262 30.9884 44.0243 40.8865 38.7862 49.2632C44.2165 41.6164 46.8815 32.3489 46.4187 23.002C47.5001 23.6292 48.474 24.3233 49.3807 25.0977C49.4779 24.7306 49.575 24.3635 49.6428 23.9897C48.3003 22.9023 46.8663 21.9446 45.3577 21.0978Z" fill="url(#paint5_linear_12_382)"/>
<path fill-rule="evenodd" clip-rule="evenodd" d="M49.9272 25.5721C48.2397 34.2952 44.4178 42.4404 38.7863 49.2644C44.9843 43.4144 49.5823 36.0729 52.1564 27.9177C51.4509 27.0697 50.7054 26.2913 49.9272 25.5721Z" fill="url(#paint6_linear_12_382)"/>
<path fill-rule="evenodd" clip-rule="evenodd" d="M36.1567 49.6518C42.954 34.8761 42.5371 17.7252 35.0198 3.11972C33.2063 2.74144 31.378 2.50626 29.5438 2.4036C39.8872 16.01 42.3913 33.9409 36.1567 49.6518Z" fill="url(#paint7_linear_12_382)"/>
<path fill-rule="evenodd" clip-rule="evenodd" d="M36.0175 49.6806C40.806 35.1287 38.1845 19.071 28.988 6.6127C27.2031 6.62757 25.3029 6.71687 23.5263 7.03298C23.6964 7.34955 23.8667 7.6676 24.0368 7.98425C25.4829 7.78803 26.9377 7.66664 28.4088 7.64795C36.8857 19.9812 39.6512 35.3123 36.0175 49.6806Z" fill="url(#paint8_linear_12_382)"/>
<path fill-rule="evenodd" clip-rule="evenodd" d="M36.1568 49.6518C37.6776 34.5686 32.5168 19.5026 22.0238 8.37272C19.7814 8.84211 17.5809 9.55398 15.4666 10.4755C28.1416 19.6197 35.8122 34.147 36.1568 49.6518Z" fill="url(#paint9_linear_12_382)"/>
<path fill-rule="evenodd" clip-rule="evenodd" d="M34.4817 48.336C33.9418 36.5966 28.5321 25.5455 19.5572 17.8213C17.5987 18.8907 15.8924 20.222 14.4142 21.7616C22.9791 22.6458 33.1129 36.5433 34.4811 48.3368L34.4817 48.336Z" fill="url(#paint10_linear_12_382)"/>
<path fill-rule="evenodd" clip-rule="evenodd" d="M34.4815 48.3359C32.8043 40.2128 26.032 31.8995 19.4134 28.2481C16.4479 26.5964 13.5495 25.9495 10.7458 27.0705C13.2682 26.5587 16.2242 27.3238 19.1904 28.9749C25.8084 32.6269 32.4647 40.6192 34.4815 48.3359Z" fill="url(#paint11_linear_12_382)"/>
<mask id="path-13-outside-1_12_382" maskUnits="userSpaceOnUse" x="56" y="5" width="108" height="17" fill="black">
<rect fill="white" x="56" y="5" width="108" height="17"/>
<path d="M62.1293 20L58.3196 6.90909H61.8161L63.7912 15.4872H63.8999L66.1562 6.90909H69.0071L71.2635 15.5064H71.3722L73.3537 6.90909H76.8438L73.0405 20H69.9915L67.6328 12.0611H67.5305L65.1719 20H62.1293ZM78.3309 20V6.90909H81.495V12.1634H86.6534V6.90909H89.811V20H86.6534V14.7393H81.495V20H78.3309ZM99.8955 6.90909H103.053V15.353C103.053 16.3288 102.821 17.179 102.356 17.9034C101.892 18.6236 101.244 19.1818 100.413 19.5781C99.5823 19.9702 98.6171 20.1662 97.5177 20.1662C96.4055 20.1662 95.4339 19.9702 94.6029 19.5781C93.7719 19.1818 93.1263 18.6236 92.6661 17.9034C92.2059 17.179 91.9758 16.3288 91.9758 15.353V6.90909H95.1398V15.0781C95.1398 15.5298 95.2378 15.9325 95.4339 16.2862C95.6341 16.6399 95.9133 16.9169 96.2712 17.1172C96.6292 17.3175 97.0447 17.4176 97.5177 17.4176C97.9907 17.4176 98.404 17.3175 98.7577 17.1172C99.1157 16.9169 99.3948 16.6399 99.5951 16.2862C99.7954 15.9325 99.8955 15.5298 99.8955 15.0781V6.90909ZM108.355 20L104.545 6.90909H108.042L110.017 15.4872H110.125L112.382 6.90909H115.233L117.489 15.5064H117.598L119.579 6.90909H123.069L119.266 20H116.217L113.858 12.0611H113.756L111.397 20H108.355ZM124.556 20V6.90909H127.721V12.1634H132.879V6.90909H136.037V20H132.879V14.7393H127.721V20H124.556ZM146.121 6.90909H149.279V15.353C149.279 16.3288 149.046 17.179 148.582 17.9034C148.118 18.6236 147.47 19.1818 146.639 19.5781C145.808 19.9702 144.843 20.1662 143.743 20.1662C142.631 20.1662 141.659 19.9702 140.828 19.5781C139.997 19.1818 139.352 18.6236 138.892 17.9034C138.431 17.179 138.201 16.3288 138.201 15.353V6.90909H141.365V15.0781C141.365 15.5298 141.463 15.9325 141.659 16.2862C141.86 16.6399 142.139 16.9169 142.497 17.1172C142.855 17.3175 143.27 17.4176 143.743 17.4176C144.216 17.4176 144.63 17.3175 144.983 17.1172C145.341 16.9169 145.62 16.6399 145.821 16.2862C146.021 15.9325 146.121 15.5298 146.121 15.0781V6.90909ZM156.281 20H151.442V6.90909H156.274C157.608 6.90909 158.756 7.17116 159.72 7.69531C160.687 8.2152 161.433 8.9652 161.957 9.94531C162.481 10.9212 162.743 12.0888 162.743 13.4482C162.743 14.8118 162.481 15.9837 161.957 16.9638C161.437 17.9439 160.693 18.696 159.726 19.2202C158.759 19.7401 157.61 20 156.281 20ZM154.606 17.3026H156.159C156.892 17.3026 157.512 17.179 158.019 16.9318C158.531 16.6804 158.916 16.2734 159.176 15.7109C159.44 15.1442 159.573 14.3899 159.573 13.4482C159.573 12.5064 159.44 11.7564 159.176 11.1982C158.912 10.6357 158.522 10.2308 158.006 9.98366C157.495 9.73224 156.864 9.60653 156.114 9.60653H154.606V17.3026Z"/>
</mask>
<path d="M62.1293 20L58.3196 6.90909H61.8161L63.7912 15.4872H63.8999L66.1562 6.90909H69.0071L71.2635 15.5064H71.3722L73.3537 6.90909H76.8438L73.0405 20H69.9915L67.6328 12.0611H67.5305L65.1719 20H62.1293ZM78.3309 20V6.90909H81.495V12.1634H86.6534V6.90909H89.811V20H86.6534V14.7393H81.495V20H78.3309ZM99.8955 6.90909H103.053V15.353C103.053 16.3288 102.821 17.179 102.356 17.9034C101.892 18.6236 101.244 19.1818 100.413 19.5781C99.5823 19.9702 98.6171 20.1662 97.5177 20.1662C96.4055 20.1662 95.4339 19.9702 94.6029 19.5781C93.7719 19.1818 93.1263 18.6236 92.6661 17.9034C92.2059 17.179 91.9758 16.3288 91.9758 15.353V6.90909H95.1398V15.0781C95.1398 15.5298 95.2378 15.9325 95.4339 16.2862C95.6341 16.6399 95.9133 16.9169 96.2712 17.1172C96.6292 17.3175 97.0447 17.4176 97.5177 17.4176C97.9907 17.4176 98.404 17.3175 98.7577 17.1172C99.1157 16.9169 99.3948 16.6399 99.5951 16.2862C99.7954 15.9325 99.8955 15.5298 99.8955 15.0781V6.90909ZM108.355 20L104.545 6.90909H108.042L110.017 15.4872H110.125L112.382 6.90909H115.233L117.489 15.5064H117.598L119.579 6.90909H123.069L119.266 20H116.217L113.858 12.0611H113.756L111.397 20H108.355ZM124.556 20V6.90909H127.721V12.1634H132.879V6.90909H136.037V20H132.879V14.7393H127.721V20H124.556ZM146.121 6.90909H149.279V15.353C149.279 16.3288 149.046 17.179 148.582 17.9034C148.118 18.6236 147.47 19.1818 146.639 19.5781C145.808 19.9702 144.843 20.1662 143.743 20.1662C142.631 20.1662 141.659 19.9702 140.828 19.5781C139.997 19.1818 139.352 18.6236 138.892 17.9034C138.431 17.179 138.201 16.3288 138.201 15.353V6.90909H141.365V15.0781C141.365 15.5298 141.463 15.9325 141.659 16.2862C141.86 16.6399 142.139 16.9169 142.497 17.1172C142.855 17.3175 143.27 17.4176 143.743 17.4176C144.216 17.4176 144.63 17.3175 144.983 17.1172C145.341 16.9169 145.62 16.6399 145.821 16.2862C146.021 15.9325 146.121 15.5298 146.121 15.0781V6.90909ZM156.281 20H151.442V6.90909H156.274C157.608 6.90909 158.756 7.17116 159.72 7.69531C160.687 8.2152 161.433 8.9652 161.957 9.94531C162.481 10.9212 162.743 12.0888 162.743 13.4482C162.743 14.8118 162.481 15.9837 161.957 16.9638C161.437 17.9439 160.693 18.696 159.726 19.2202C158.759 19.7401 157.61 20 156.281 20ZM154.606 17.3026H156.159C156.892 17.3026 157.512 17.179 158.019 16.9318C158.531 16.6804 158.916 16.2734 159.176 15.7109C159.44 15.1442 159.573 14.3899 159.573 13.4482C159.573 12.5064 159.44 11.7564 159.176 11.1982C158.912 10.6357 158.522 10.2308 158.006 9.98366C157.495 9.73224 156.864 9.60653 156.114 9.60653H154.606V17.3026Z" fill="#9301BC"/>
<path d="M62.1293 20L61.1691 20.2794L61.3788 21H62.1293V20ZM58.3196 6.90909V5.90909H56.9871L57.3594 7.18851L58.3196 6.90909ZM61.8161 6.90909L62.7906 6.68471L62.612 5.90909H61.8161V6.90909ZM63.7912 15.4872L62.8167 15.7116L62.9953 16.4872H63.7912V15.4872ZM63.8999 15.4872V16.4872H64.6708L64.867 15.7416L63.8999 15.4872ZM66.1562 6.90909V5.90909H65.3853L65.1891 6.6547L66.1562 6.90909ZM69.0071 6.90909L69.9743 6.65523L69.7785 5.90909H69.0071V6.90909ZM71.2635 15.5064L70.2963 15.7602L70.4921 16.5064H71.2635V15.5064ZM71.3722 15.5064V16.5064H72.1679L72.3466 15.731L71.3722 15.5064ZM73.3537 6.90909V5.90909H72.558L72.3792 6.6845L73.3537 6.90909ZM76.8438 6.90909L77.804 7.18808L78.1756 5.90909H76.8438V6.90909ZM73.0405 20V21H73.7913L74.0008 20.279L73.0405 20ZM69.9915 20L69.0329 20.2848L69.2454 21H69.9915V20ZM67.6328 12.0611L68.5914 11.7763L68.3789 11.0611H67.6328V12.0611ZM67.5305 12.0611V11.0611H66.7844L66.572 11.7763L67.5305 12.0611ZM65.1719 20V21H65.918L66.1305 20.2848L65.1719 20ZM62.1293 20L63.0894 19.7206L59.2798 6.62967L58.3196 6.90909L57.3594 7.18851L61.1691 20.2794L62.1293 20ZM58.3196 6.90909V7.90909H61.8161V6.90909V5.90909H58.3196V6.90909ZM61.8161 6.90909L60.8415 7.13347L62.8167 15.7116L63.7912 15.4872L64.7657 15.2628L62.7906 6.68471L61.8161 6.90909ZM63.7912 15.4872V16.4872H63.8999V15.4872V14.4872H63.7912V15.4872ZM63.8999 15.4872L64.867 15.7416L67.1234 7.16348L66.1562 6.90909L65.1891 6.6547L62.9328 15.2328L63.8999 15.4872ZM66.1562 6.90909V7.90909H69.0071V6.90909V5.90909H66.1562V6.90909ZM69.0071 6.90909L68.0399 7.16295L70.2963 15.7602L71.2635 15.5064L72.2307 15.2525L69.9743 6.65523L69.0071 6.90909ZM71.2635 15.5064V16.5064H71.3722V15.5064V14.5064H71.2635V15.5064ZM71.3722 15.5064L72.3466 15.731L74.3281 7.13369L73.3537 6.90909L72.3792 6.6845L70.3977 15.2818L71.3722 15.5064ZM73.3537 6.90909V7.90909H76.8438V6.90909V5.90909H73.3537V6.90909ZM76.8438 6.90909L75.8835 6.6301L72.0802 19.721L73.0405 20L74.0008 20.279L77.804 7.18808L76.8438 6.90909ZM73.0405 20V19H69.9915V20V21H73.0405V20ZM69.9915 20L70.9501 19.7152L68.5914 11.7763L67.6328 12.0611L66.6742 12.3459L69.0329 20.2848L69.9915 20ZM67.6328 12.0611V11.0611H67.5305V12.0611V13.0611H67.6328V12.0611ZM67.5305 12.0611L66.572 11.7763L64.2133 19.7152L65.1719 20L66.1305 20.2848L68.4891 12.3459L67.5305 12.0611ZM65.1719 20V19H62.1293V20V21H65.1719V20ZM78.3309 20H77.3309V21H78.3309V20ZM78.3309 6.90909V5.90909H77.3309V6.90909H78.3309ZM81.495 6.90909H82.495V5.90909H81.495V6.90909ZM81.495 12.1634H80.495V13.1634H81.495V12.1634ZM86.6534 12.1634V13.1634H87.6534V12.1634H86.6534ZM86.6534 6.90909V5.90909H85.6534V6.90909H86.6534ZM89.811 6.90909H90.811V5.90909H89.811V6.90909ZM89.811 20V21H90.811V20H89.811ZM86.6534 20H85.6534V21H86.6534V20ZM86.6534 14.7393H87.6534V13.7393H86.6534V14.7393ZM81.495 14.7393V13.7393H80.495V14.7393H81.495ZM81.495 20V21H82.495V20H81.495ZM78.3309 20H79.3309V6.90909H78.3309H77.3309V20H78.3309ZM78.3309 6.90909V7.90909H81.495V6.90909V5.90909H78.3309V6.90909ZM81.495 6.90909H80.495V12.1634H81.495H82.495V6.90909H81.495ZM81.495 12.1634V13.1634H86.6534V12.1634V11.1634H81.495V12.1634ZM86.6534 12.1634H87.6534V6.90909H86.6534H85.6534V12.1634H86.6534ZM86.6534 6.90909V7.90909H89.811V6.90909V5.90909H86.6534V6.90909ZM89.811 6.90909H88.811V20H89.811H90.811V6.90909H89.811ZM89.811 20V19H86.6534V20V21H89.811V20ZM86.6534 20H87.6534V14.7393H86.6534H85.6534V20H86.6534ZM86.6534 14.7393V13.7393H81.495V14.7393V15.7393H86.6534V14.7393ZM81.495 14.7393H80.495V20H81.495H82.495V14.7393H81.495ZM81.495 20V19H78.3309V20V21H81.495V20ZM99.8955 6.90909V5.90909H98.8955V6.90909H99.8955ZM103.053 6.90909H104.053V5.90909H103.053V6.90909ZM102.356 17.9034L103.197 18.4454L103.198 18.4432L102.356 17.9034ZM100.413 19.5781L100.84 20.4825L100.844 20.4807L100.413 19.5781ZM94.6029 19.5781L94.1724 20.4807L94.1762 20.4825L94.6029 19.5781ZM92.6661 17.9034L91.822 18.4396L91.8235 18.4419L92.6661 17.9034ZM91.9758 6.90909V5.90909H90.9758V6.90909H91.9758ZM95.1398 6.90909H96.1398V5.90909H95.1398V6.90909ZM95.4339 16.2862L94.5592 16.771L94.5637 16.779L95.4339 16.2862ZM96.2712 17.1172L96.7595 16.2445L96.7595 16.2445L96.2712 17.1172ZM98.7577 17.1172L98.2694 16.2445L98.265 16.247L98.7577 17.1172ZM99.8955 6.90909V7.90909H103.053V6.90909V5.90909H99.8955V6.90909ZM103.053 6.90909H102.053V15.353H103.053H104.053V6.90909H103.053ZM103.053 15.353H102.053C102.053 16.1639 101.862 16.8211 101.515 17.3637L102.356 17.9034L103.198 18.4432C103.779 17.5368 104.053 16.4938 104.053 15.353H103.053ZM102.356 17.9034L101.516 17.3614C101.16 17.9141 100.659 18.3529 99.9828 18.6755L100.413 19.5781L100.844 20.4807C101.829 20.0107 102.624 19.3331 103.197 18.4454L102.356 17.9034ZM100.413 19.5781L99.9866 18.6737C99.3127 18.9917 98.4982 19.1662 97.5177 19.1662V20.1662V21.1662C98.736 21.1662 99.8519 20.9487 100.84 20.4825L100.413 19.5781ZM97.5177 20.1662V19.1662C96.5225 19.1662 95.702 18.991 95.0296 18.6737L94.6029 19.5781L94.1762 20.4825C95.1657 20.9494 96.2884 21.1662 97.5177 21.1662V20.1662ZM94.6029 19.5781L95.0334 18.6755C94.3576 18.3532 93.8605 17.9154 93.5087 17.3649L92.6661 17.9034L91.8235 18.4419C92.3921 19.3318 93.1863 20.0104 94.1724 20.4807L94.6029 19.5781ZM92.6661 17.9034L93.5102 17.3672C93.1652 16.8242 92.9758 16.1656 92.9758 15.353H91.9758H90.9758C90.9758 16.492 91.2465 17.5338 91.822 18.4396L92.6661 17.9034ZM91.9758 15.353H92.9758V6.90909H91.9758H90.9758V15.353H91.9758ZM91.9758 6.90909V7.90909H95.1398V6.90909V5.90909H91.9758V6.90909ZM95.1398 6.90909H94.1398V15.0781H95.1398H96.1398V6.90909H95.1398ZM95.1398 15.0781H94.1398C94.1398 15.6792 94.2717 16.2522 94.5592 16.771L95.4339 16.2862L96.3085 15.8015C96.204 15.6129 96.1398 15.3805 96.1398 15.0781H95.1398ZM95.4339 16.2862L94.5637 16.779C94.855 17.2934 95.2669 17.7011 95.7829 17.9899L96.2712 17.1172L96.7595 16.2445C96.5597 16.1327 96.4133 15.9864 96.304 15.7935L95.4339 16.2862ZM96.2712 17.1172L95.7829 17.9899C96.3116 18.2857 96.9002 18.4176 97.5177 18.4176V17.4176V16.4176C97.1892 16.4176 96.9468 16.3493 96.7595 16.2445L96.2712 17.1172ZM97.5177 17.4176V18.4176C98.1349 18.4176 98.7235 18.2858 99.2505 17.9874L98.7577 17.1172L98.265 16.247C98.0846 16.3492 97.8465 16.4176 97.5177 16.4176V17.4176ZM98.7577 17.1172L99.246 17.9899C99.7621 17.7011 100.174 17.2934 100.465 16.779L99.5951 16.2862L98.7249 15.7935C98.6156 15.9864 98.4693 16.1327 98.2694 16.2445L98.7577 17.1172ZM99.5951 16.2862L100.465 16.779C100.76 16.2588 100.896 15.6829 100.896 15.0781H99.8955H98.8955C98.8955 15.3768 98.8309 15.6063 98.7249 15.7935L99.5951 16.2862ZM99.8955 15.0781H100.896V6.90909H99.8955H98.8955V15.0781H99.8955ZM108.355 20L107.395 20.2794L107.604 21H108.355V20ZM104.545 6.90909V5.90909H103.213L103.585 7.18851L104.545 6.90909ZM108.042 6.90909L109.016 6.68471L108.838 5.90909H108.042V6.90909ZM110.017 15.4872L109.042 15.7116L109.221 16.4872H110.017V15.4872ZM110.125 15.4872V16.4872H110.896L111.093 15.7416L110.125 15.4872ZM112.382 6.90909V5.90909H111.611L111.415 6.6547L112.382 6.90909ZM115.233 6.90909L116.2 6.65523L116.004 5.90909H115.233V6.90909ZM117.489 15.5064L116.522 15.7602L116.718 16.5064H117.489V15.5064ZM117.598 15.5064V16.5064H118.393L118.572 15.731L117.598 15.5064ZM119.579 6.90909V5.90909H118.784L118.605 6.6845L119.579 6.90909ZM123.069 6.90909L124.03 7.18808L124.401 5.90909H123.069V6.90909ZM119.266 20V21H120.017L120.226 20.279L119.266 20ZM116.217 20L115.258 20.2848L115.471 21H116.217V20ZM113.858 12.0611L114.817 11.7763L114.604 11.0611H113.858V12.0611ZM113.756 12.0611V11.0611H113.01L112.798 11.7763L113.756 12.0611ZM111.397 20V21H112.144L112.356 20.2848L111.397 20ZM108.355 20L109.315 19.7206L105.505 6.62967L104.545 6.90909L103.585 7.18851L107.395 20.2794L108.355 20ZM104.545 6.90909V7.90909H108.042V6.90909V5.90909H104.545V6.90909ZM108.042 6.90909L107.067 7.13347L109.042 15.7116L110.017 15.4872L110.991 15.2628L109.016 6.68471L108.042 6.90909ZM110.017 15.4872V16.4872H110.125V15.4872V14.4872H110.017V15.4872ZM110.125 15.4872L111.093 15.7416L113.349 7.16348L112.382 6.90909L111.415 6.6547L109.158 15.2328L110.125 15.4872ZM112.382 6.90909V7.90909H115.233V6.90909V5.90909H112.382V6.90909ZM115.233 6.90909L114.265 7.16295L116.522 15.7602L117.489 15.5064L118.456 15.2525L116.2 6.65523L115.233 6.90909ZM117.489 15.5064V16.5064H117.598V15.5064V14.5064H117.489V15.5064ZM117.598 15.5064L118.572 15.731L120.554 7.13369L119.579 6.90909L118.605 6.6845L116.623 15.2818L117.598 15.5064ZM119.579 6.90909V7.90909H123.069V6.90909V5.90909H119.579V6.90909ZM123.069 6.90909L122.109 6.6301L118.306 19.721L119.266 20L120.226 20.279L124.03 7.18808L123.069 6.90909ZM119.266 20V19H116.217V20V21H119.266V20ZM116.217 20L117.176 19.7152L114.817 11.7763L113.858 12.0611L112.9 12.3459L115.258 20.2848L116.217 20ZM113.858 12.0611V11.0611H113.756V12.0611V13.0611H113.858V12.0611ZM113.756 12.0611L112.798 11.7763L110.439 19.7152L111.397 20L112.356 20.2848L114.715 12.3459L113.756 12.0611ZM111.397 20V19H108.355V20V21H111.397V20ZM124.556 20H123.556V21H124.556V20ZM124.556 6.90909V5.90909H123.556V6.90909H124.556ZM127.721 6.90909H128.721V5.90909H127.721V6.90909ZM127.721 12.1634H126.721V13.1634H127.721V12.1634ZM132.879 12.1634V13.1634H133.879V12.1634H132.879ZM132.879 6.90909V5.90909H131.879V6.90909H132.879ZM136.037 6.90909H137.037V5.90909H136.037V6.90909ZM136.037 20V21H137.037V20H136.037ZM132.879 20H131.879V21H132.879V20ZM132.879 14.7393H133.879V13.7393H132.879V14.7393ZM127.721 14.7393V13.7393H126.721V14.7393H127.721ZM127.721 20V21H128.721V20H127.721ZM124.556 20H125.556V6.90909H124.556H123.556V20H124.556ZM124.556 6.90909V7.90909H127.721V6.90909V5.90909H124.556V6.90909ZM127.721 6.90909H126.721V12.1634H127.721H128.721V6.90909H127.721ZM127.721 12.1634V13.1634H132.879V12.1634V11.1634H127.721V12.1634ZM132.879 12.1634H133.879V6.90909H132.879H131.879V12.1634H132.879ZM132.879 6.90909V7.90909H136.037V6.90909V5.90909H132.879V6.90909ZM136.037 6.90909H135.037V20H136.037H137.037V6.90909H136.037ZM136.037 20V19H132.879V20V21H136.037V20ZM132.879 20H133.879V14.7393H132.879H131.879V20H132.879ZM132.879 14.7393V13.7393H127.721V14.7393V15.7393H132.879V14.7393ZM127.721 14.7393H126.721V20H127.721H128.721V14.7393H127.721ZM127.721 20V19H124.556V20V21H127.721V20ZM146.121 6.90909V5.90909H145.121V6.90909H146.121ZM149.279 6.90909H150.279V5.90909H149.279V6.90909ZM148.582 17.9034L149.422 18.4454L149.424 18.4432L148.582 17.9034ZM146.639 19.5781L147.066 20.4825L147.069 20.4807L146.639 19.5781ZM140.828 19.5781L140.398 20.4807L140.402 20.4825L140.828 19.5781ZM138.892 17.9034L138.048 18.4396L138.049 18.4419L138.892 17.9034ZM138.201 6.90909V5.90909H137.201V6.90909H138.201ZM141.365 6.90909H142.365V5.90909H141.365V6.90909ZM141.659 16.2862L140.785 16.771L140.789 16.779L141.659 16.2862ZM142.497 17.1172L142.985 16.2445L142.985 16.2445L142.497 17.1172ZM144.983 17.1172L144.495 16.2445L144.491 16.247L144.983 17.1172ZM146.121 6.90909V7.90909H149.279V6.90909V5.90909H146.121V6.90909ZM149.279 6.90909H148.279V15.353H149.279H150.279V6.90909H149.279ZM149.279 15.353H148.279C148.279 16.1639 148.088 16.8211 147.74 17.3637L148.582 17.9034L149.424 18.4432C150.005 17.5368 150.279 16.4938 150.279 15.353H149.279ZM148.582 17.9034L147.742 17.3614C147.385 17.9141 146.885 18.3529 146.208 18.6755L146.639 19.5781L147.069 20.4807C148.055 20.0107 148.85 19.3331 149.422 18.4454L148.582 17.9034ZM146.639 19.5781L146.212 18.6737C145.538 18.9917 144.724 19.1662 143.743 19.1662V20.1662V21.1662C144.962 21.1662 146.077 20.9487 147.066 20.4825L146.639 19.5781ZM143.743 20.1662V19.1662C142.748 19.1662 141.928 18.991 141.255 18.6737L140.828 19.5781L140.402 20.4825C141.391 20.9494 142.514 21.1662 143.743 21.1662V20.1662ZM140.828 19.5781L141.259 18.6755C140.583 18.3532 140.086 17.9154 139.734 17.3649L138.892 17.9034L138.049 18.4419C138.618 19.3318 139.412 20.0104 140.398 20.4807L140.828 19.5781ZM138.892 17.9034L139.736 17.3672C139.391 16.8242 139.201 16.1656 139.201 15.353H138.201H137.201C137.201 16.492 137.472 17.5338 138.048 18.4396L138.892 17.9034ZM138.201 15.353H139.201V6.90909H138.201H137.201V15.353H138.201ZM138.201 6.90909V7.90909H141.365V6.90909V5.90909H138.201V6.90909ZM141.365 6.90909H140.365V15.0781H141.365H142.365V6.90909H141.365ZM141.365 15.0781H140.365C140.365 15.6792 140.497 16.2522 140.785 16.771L141.659 16.2862L142.534 15.8015C142.43 15.6129 142.365 15.3805 142.365 15.0781H141.365ZM141.659 16.2862L140.789 16.779C141.081 17.2934 141.492 17.7011 142.008 17.9899L142.497 17.1172L142.985 16.2445C142.785 16.1327 142.639 15.9864 142.53 15.7935L141.659 16.2862ZM142.497 17.1172L142.008 17.9899C142.537 18.2857 143.126 18.4176 143.743 18.4176V17.4176V16.4176C143.415 16.4176 143.172 16.3493 142.985 16.2445L142.497 17.1172ZM143.743 17.4176V18.4176C144.36 18.4176 144.949 18.2858 145.476 17.9874L144.983 17.1172L144.491 16.247C144.31 16.3492 144.072 16.4176 143.743 16.4176V17.4176ZM144.983 17.1172L145.472 17.9899C145.988 17.7011 146.4 17.2934 146.691 16.779L145.821 16.2862L144.95 15.7935C144.841 15.9864 144.695 16.1327 144.495 16.2445L144.983 17.1172ZM145.821 16.2862L146.691 16.779C146.985 16.2588 147.121 15.6829 147.121 15.0781H146.121H145.121C145.121 15.3768 145.056 15.6063 144.95 15.7935L145.821 16.2862ZM146.121 15.0781H147.121V6.90909H146.121H145.121V15.0781H146.121ZM151.442 20H150.442V21H151.442V20ZM151.442 6.90909V5.90909H150.442V6.90909H151.442ZM159.72 7.69531L159.242 8.57367L159.246 8.57616L159.72 7.69531ZM161.957 9.94531L161.075 10.4169L161.076 10.4185L161.957 9.94531ZM161.957 16.9638L161.075 16.4922L161.073 16.4952L161.957 16.9638ZM159.726 19.2202L160.199 20.101L160.202 20.0994L159.726 19.2202ZM154.606 17.3026H153.606V18.3026H154.606V17.3026ZM158.019 16.9318L158.457 17.8307L158.46 17.8292L158.019 16.9318ZM159.176 15.7109L158.27 15.2884L158.268 15.2914L159.176 15.7109ZM159.176 11.1982L158.271 11.6233L158.272 11.6259L159.176 11.1982ZM158.006 9.98366L157.565 10.8811L157.574 10.8854L158.006 9.98366ZM154.606 9.60653V8.60653H153.606V9.60653H154.606ZM156.281 20V19H151.442V20V21H156.281V20ZM151.442 20H152.442V6.90909H151.442H150.442V20H151.442ZM151.442 6.90909V7.90909H156.274V6.90909V5.90909H151.442V6.90909ZM156.274 6.90909V7.90909C157.477 7.90909 158.454 8.14488 159.242 8.57365L159.72 7.69531L160.198 6.81697C159.059 6.19745 157.739 5.90909 156.274 5.90909V6.90909ZM159.72 7.69531L159.246 8.57616C160.038 9.00162 160.642 9.6082 161.075 10.4169L161.957 9.94531L162.839 9.47373C162.223 8.32219 161.336 7.42878 160.193 6.81447L159.72 7.69531ZM161.957 9.94531L161.076 10.4185C161.506 11.2194 161.743 12.2168 161.743 13.4482H162.743H163.743C163.743 11.9607 163.456 10.6229 162.838 9.47213L161.957 9.94531ZM162.743 13.4482H161.743C161.743 14.6841 161.506 15.6865 161.075 16.4922L161.957 16.9638L162.839 17.4354C163.456 16.2808 163.743 14.9394 163.743 13.4482H162.743ZM161.957 16.9638L161.073 16.4952C160.645 17.3029 160.042 17.9115 159.25 18.3409L159.726 19.2202L160.202 20.0994C161.344 19.4806 162.229 18.5849 162.84 17.4324L161.957 16.9638ZM159.726 19.2202L159.253 18.3393C158.458 18.7661 157.48 19 156.281 19V20V21C157.741 21 159.059 20.714 160.199 20.101L159.726 19.2202ZM154.606 17.3026V18.3026H156.159V17.3026V16.3026H154.606V17.3026ZM156.159 17.3026V18.3026C157 18.3026 157.779 18.1612 158.457 17.8307L158.019 16.9318L157.581 16.0329C157.245 16.1967 156.784 16.3026 156.159 16.3026V17.3026ZM158.019 16.9318L158.46 17.8292C159.196 17.4676 159.737 16.8815 160.084 16.1304L159.176 15.7109L158.268 15.2914C158.096 15.6653 157.865 15.8932 157.578 16.0344L158.019 16.9318ZM159.176 15.7109L160.083 16.1335C160.432 15.3846 160.573 14.4687 160.573 13.4482H159.573H158.573C158.573 14.3112 158.449 14.9037 158.27 15.2884L159.176 15.7109ZM159.573 13.4482H160.573C160.573 12.4288 160.432 11.514 160.08 10.7704L159.176 11.1982L158.272 11.6259C158.449 11.9988 158.573 12.584 158.573 13.4482H159.573ZM159.176 11.1982L160.081 10.773C159.728 10.0213 159.181 9.43758 158.439 9.08191L158.006 9.98366L157.574 10.8854C157.863 11.0241 158.096 11.25 158.271 11.6233L159.176 11.1982ZM158.006 9.98366L158.448 9.08627C157.763 8.74949 156.971 8.60653 156.114 8.60653V9.60653V10.6065C156.758 10.6065 157.228 10.715 157.565 10.8811L158.006 9.98366ZM156.114 9.60653V8.60653H154.606V9.60653V10.6065H156.114V9.60653ZM154.606 9.60653H153.606V17.3026H154.606H155.606V9.60653H154.606Z" fill="#D7EBEE" mask="url(#path-13-outside-1_12_382)"/>
<path d="M57.2359 44.5C56.6359 44.5 56.1293 44.34 55.7159 44.02C55.3026 43.7 55.0959 43.2733 55.0959 42.74C55.0959 42.46 55.1693 42.1533 55.3159 41.82C55.4493 41.4867 55.6626 41.1333 55.9559 40.76C56.5026 40.0933 57.1359 39.54 57.8559 39.1C58.5626 38.66 59.2893 38.2533 60.0359 37.88C60.1159 37.84 60.1759 37.82 60.2159 37.82C60.2559 37.82 60.2759 37.8333 60.2759 37.86C60.2759 37.9533 60.1826 38.0533 59.9959 38.16C59.3959 38.4533 58.8959 38.7467 58.4959 39.04C58.0959 39.3467 57.7293 39.6867 57.3959 40.06C57.0626 40.4333 56.6893 40.8933 56.2759 41.44C56.0359 41.76 55.8626 42.0533 55.7559 42.32C55.6493 42.5867 55.5959 42.8267 55.5959 43.04C55.5959 43.4 55.7226 43.6733 55.9759 43.86C56.2293 44.06 56.5493 44.16 56.9359 44.16C57.2426 44.16 57.5759 44.0933 57.9359 43.96C58.2959 43.8267 58.6493 43.6267 58.9959 43.36C59.8226 42.7333 60.4559 41.98 60.8959 41.1C61.3359 40.2333 61.6426 39.3067 61.8159 38.32C61.9893 37.32 62.0759 36.3267 62.0759 35.34C62.0759 34.5 62.0359 33.6933 61.9559 32.92C61.8759 32.1467 61.7826 31.44 61.6759 30.8C61.5826 30.16 61.5026 29.6267 61.4359 29.2C60.6359 29.5333 59.8959 29.94 59.2159 30.42C59.1626 30.4467 59.1226 30.46 59.0959 30.46C59.0159 30.46 58.9493 30.4133 58.8959 30.32C58.8559 30.2267 58.8359 30.1333 58.8359 30.04C58.8359 29.88 58.8959 29.76 59.0159 29.68C59.4026 29.44 59.7826 29.24 60.1559 29.08C60.5426 28.9067 60.9426 28.7667 61.3559 28.66C61.3426 28.5 61.4026 28.3333 61.5359 28.16C61.6693 27.9867 61.8026 27.9 61.9359 27.9C62.0826 27.9 62.1626 27.9933 62.1759 28.18L62.2159 28.48C62.4826 28.44 62.7559 28.4133 63.0359 28.4C63.3159 28.3867 63.6026 28.38 63.8959 28.38C64.0959 28.38 64.2959 28.38 64.4959 28.38C64.6959 28.38 64.8959 28.3933 65.0959 28.42C65.3493 28.4467 65.4759 28.5067 65.4759 28.6C65.4759 28.6533 65.3693 28.68 65.1559 28.68C65.0093 28.68 64.8559 28.6733 64.6959 28.66C64.5359 28.6467 64.3826 28.64 64.2359 28.64C63.5826 28.64 62.9359 28.7333 62.2959 28.92C62.4426 29.7467 62.5626 30.6467 62.6559 31.62C62.7493 32.5933 62.7959 33.5867 62.7959 34.6C62.7959 35.8133 62.6959 37.0067 62.4959 38.18C62.3093 39.3533 61.9759 40.42 61.4959 41.38C61.0159 42.3533 60.3426 43.14 59.4759 43.74C59.1026 43.9933 58.7226 44.18 58.3359 44.3C57.9493 44.4333 57.5826 44.5 57.2359 44.5ZM66.1414 38.84C65.9281 38.84 65.7481 38.7267 65.6014 38.5C65.4947 38.3133 65.4414 38.0933 65.4414 37.84C65.4414 37.48 65.5214 37.0733 65.6814 36.62C65.8414 36.1667 66.0547 35.7267 66.3214 35.3C66.6014 34.8733 66.9081 34.5133 67.2414 34.22C67.5881 33.9133 67.9414 33.7333 68.3014 33.68C68.4347 33.6667 68.5947 33.7 68.7814 33.78C68.9681 33.86 69.1214 33.96 69.2414 34.08C69.2681 33.9467 69.2881 33.82 69.3014 33.7C69.3147 33.5667 69.3214 33.44 69.3214 33.32C69.3214 32.9467 69.2614 32.6133 69.1414 32.32C69.0214 32.0267 68.8081 31.8333 68.5014 31.74C68.3814 31.7 68.2481 31.68 68.1014 31.68C68.0214 31.68 67.9347 31.6933 67.8414 31.72C67.7481 31.7333 67.6481 31.7733 67.5414 31.84C67.4347 31.8933 67.3281 31.98 67.2214 32.1C67.1147 32.2067 67.0414 32.3067 67.0014 32.4C66.9747 32.4533 66.9081 32.5733 66.8014 32.76C66.6947 32.9333 66.6081 33.0133 66.5414 33C66.4881 32.9867 66.4614 32.94 66.4614 32.86C66.4614 32.82 66.4747 32.76 66.5014 32.68C66.5814 32.4267 66.7347 32.2133 66.9614 32.04C67.1881 31.8533 67.4347 31.7067 67.7014 31.6C67.9681 31.48 68.1881 31.4133 68.3614 31.4C68.4014 31.4 68.4414 31.4 68.4814 31.4C68.5214 31.3867 68.5547 31.38 68.5814 31.38C68.7947 31.38 68.9881 31.4133 69.1614 31.48C69.3481 31.5333 69.4947 31.6067 69.6014 31.7C69.7747 31.8333 69.9147 32.0067 70.0214 32.22C70.1281 32.42 70.1814 32.6733 70.1814 32.98C70.1814 33.0733 70.1747 33.1733 70.1614 33.28C70.1481 33.3867 70.1281 33.4933 70.1014 33.6C70.0614 33.8133 70.0081 34.0867 69.9414 34.42C69.8881 34.74 69.8281 35.0733 69.7614 35.42C69.7081 35.7667 69.6614 36.0867 69.6214 36.38C69.5947 36.66 69.5814 36.86 69.5814 36.98C69.5814 37.1133 69.6214 37.2667 69.7014 37.44C69.7947 37.6 69.9147 37.68 70.0614 37.68C70.1414 37.68 70.2281 37.64 70.3214 37.56C70.4281 37.48 70.5347 37.3467 70.6414 37.16C70.7081 37.0533 70.7681 37 70.8214 37C70.8881 37 70.9214 37.04 70.9214 37.12C70.9214 37.2267 70.8681 37.3533 70.7614 37.5C70.5081 37.86 70.1881 38.04 69.8014 38.04C69.4814 38.04 69.2547 37.9067 69.1214 37.64C68.8947 37.2 68.7814 36.8067 68.7814 36.46C68.7814 36.1 68.7747 35.8533 68.7614 35.72C68.6947 35.88 68.5681 36.1333 68.3814 36.48C68.1947 36.8133 67.9747 37.1667 67.7214 37.54C67.4681 37.9 67.2014 38.2067 66.9214 38.46C66.6414 38.7133 66.3814 38.84 66.1414 38.84ZM66.4614 38.24C66.5947 38.24 66.7481 38.1733 66.9214 38.04C67.1081 37.9067 67.3014 37.7 67.5014 37.42C67.7681 37.0333 68.0147 36.6 68.2414 36.12C68.4681 35.64 68.6747 35.1733 68.8614 34.72C68.7014 34.3333 68.5014 34.14 68.2614 34.14C68.0481 34.14 67.8214 34.2533 67.5814 34.48C67.3414 34.7067 67.1147 34.9667 66.9014 35.26C66.6347 35.66 66.4214 36.06 66.2614 36.46C66.1147 36.86 66.0414 37.2 66.0414 37.48C66.0414 37.9867 66.1814 38.24 66.4614 38.24ZM76.5623 39.26C76.389 39.26 76.2357 39.1533 76.1023 38.94C75.969 38.7133 75.9023 38.2867 75.9023 37.66C75.9023 37.1667 75.9423 36.6267 76.0223 36.04C76.1023 35.44 76.189 34.8467 76.2823 34.26C76.389 33.6733 76.4823 33.1533 76.5623 32.7C76.6423 32.2333 76.6823 31.8933 76.6823 31.68C76.6823 31.3067 76.569 31.12 76.3423 31.12C76.129 31.12 75.909 31.2267 75.6823 31.44C75.469 31.6533 75.2623 31.9133 75.0623 32.22C74.8757 32.5267 74.709 32.8267 74.5623 33.12C74.429 33.4 74.3423 33.6067 74.3023 33.74C74.1157 34.26 73.9823 34.78 73.9023 35.3C73.8223 35.8067 73.7823 36.3333 73.7823 36.88C73.7823 37.1067 73.789 37.34 73.8023 37.58C73.829 37.82 73.849 38.0667 73.8623 38.32C73.889 38.4533 73.849 38.62 73.7423 38.82C73.649 39.0067 73.5357 39.1 73.4023 39.1C73.309 39.1 73.229 39.04 73.1623 38.92C73.0957 38.8 73.049 38.6933 73.0223 38.6C72.969 38.44 72.929 38.2733 72.9023 38.1C72.8757 37.9133 72.849 37.7533 72.8223 37.62C72.729 37.0733 72.6423 36.52 72.5623 35.96C72.4823 35.3867 72.369 34.8333 72.2223 34.3C72.1823 34.1533 72.129 34 72.0623 33.84C72.009 33.6667 71.9223 33.5267 71.8023 33.42C71.7757 33.3933 71.7357 33.3667 71.6823 33.34C71.629 33.3 71.6023 33.2667 71.6023 33.24C71.6023 33.1867 71.6757 33.16 71.8223 33.16C71.9823 33.16 72.1423 33.24 72.3023 33.4C72.4623 33.56 72.609 33.7733 72.7423 34.04C72.9023 34.3733 73.0357 34.7267 73.1423 35.1C73.2623 35.4733 73.3557 35.7733 73.4223 36C73.5023 35.52 73.589 35.0933 73.6823 34.72C73.7757 34.4 73.9023 34.02 74.0623 33.58C74.2223 33.1267 74.4223 32.6867 74.6623 32.26C74.9023 31.82 75.189 31.46 75.5223 31.18C75.8557 30.8867 76.2423 30.74 76.6823 30.74C77.3223 30.74 77.6423 31.1133 77.6423 31.86C77.6423 32.2467 77.5757 32.6733 77.4423 33.14C77.309 33.5933 77.1623 34.0133 77.0023 34.4C76.8557 34.7867 76.7557 35.0533 76.7023 35.2C76.6357 35.3867 76.5623 35.64 76.4823 35.96C76.4157 36.28 76.3557 36.6133 76.3023 36.96C76.2623 37.3067 76.2423 37.6267 76.2423 37.92C76.2423 38.1733 76.269 38.3867 76.3223 38.56C76.389 38.72 76.489 38.8 76.6223 38.8C76.7557 38.8 76.8757 38.74 76.9823 38.62C77.089 38.4867 77.1757 38.3667 77.2423 38.26C77.3223 38.1533 77.3623 38.1333 77.3623 38.2C77.389 38.4 77.3157 38.6267 77.1423 38.88C76.9823 39.1333 76.789 39.26 76.5623 39.26ZM79.765 46.94C79.2317 46.94 78.7783 46.78 78.405 46.46C78.0183 46.1533 77.825 45.74 77.825 45.22C77.825 44.7 78.0717 44.0933 78.565 43.4C79.0583 42.7067 79.8917 41.9867 81.065 41.24C81.3317 41.0533 81.6117 40.8867 81.905 40.74C82.2117 40.5933 82.525 40.44 82.845 40.28C82.925 40.24 82.985 40.22 83.025 40.22C83.0783 40.22 83.105 40.24 83.105 40.28C83.105 40.3733 83.0117 40.4733 82.825 40.58C82.185 40.9 81.6383 41.2333 81.185 41.58C80.745 41.94 80.3383 42.36 79.965 42.84C79.765 43.0933 79.5517 43.3867 79.325 43.72C79.1117 44.0667 78.9317 44.4067 78.785 44.74C78.625 45.0733 78.545 45.3733 78.545 45.64C78.545 46.2 78.8117 46.48 79.345 46.48C79.5717 46.48 79.8383 46.4133 80.145 46.28C80.4517 46.16 80.785 45.96 81.145 45.68C82.0517 44.9733 82.6917 44.1867 83.065 43.32C83.4383 42.4667 83.625 41.4667 83.625 40.32C83.625 39.4667 83.545 38.52 83.385 37.48C83.2383 36.4133 83.1583 35.3933 83.145 34.42C83.0783 34.8333 82.965 35.3333 82.805 35.92C82.6583 36.4933 82.4783 37.04 82.265 37.56C82.0517 38.08 81.8117 38.5267 81.545 38.9C81.2917 39.2733 80.965 39.46 80.565 39.46C80.285 39.46 80.045 39.32 79.845 39.04C79.6583 38.76 79.565 38.3333 79.565 37.76C79.565 37.3333 79.6383 36.8267 79.785 36.24C79.9317 35.6533 80.1317 35.0867 80.385 34.54C80.6383 33.98 80.9183 33.52 81.225 33.16C81.545 32.7867 81.865 32.6 82.185 32.6C82.4117 32.6 82.5717 32.6933 82.665 32.88C82.7717 33.0533 82.825 33.2333 82.825 33.42C82.825 33.5667 82.7983 33.6933 82.745 33.8C82.6917 33.9067 82.6117 33.96 82.505 33.96C82.3983 33.9467 82.3183 33.9 82.265 33.82C82.225 33.7267 82.185 33.64 82.145 33.56C82.105 33.4667 82.0317 33.42 81.925 33.42C81.7117 33.42 81.505 33.56 81.305 33.84C81.1183 34.1067 80.945 34.46 80.785 34.9C80.6383 35.3267 80.5183 35.78 80.425 36.26C80.345 36.74 80.305 37.18 80.305 37.58C80.305 37.9533 80.345 38.26 80.425 38.5C80.5183 38.74 80.6583 38.8667 80.845 38.88C81.0717 38.8933 81.2917 38.7467 81.505 38.44C81.7183 38.1333 81.9117 37.74 82.085 37.26C82.2717 36.78 82.4317 36.2733 82.565 35.74C82.7117 35.1933 82.8317 34.6867 82.925 34.22C83.0317 33.74 83.105 33.3667 83.145 33.1C83.2517 32.3933 83.3517 31.9467 83.445 31.76C83.5383 31.56 83.6383 31.46 83.745 31.46C83.8383 31.46 83.9183 31.5467 83.985 31.72C84.065 31.8933 84.105 32.0533 84.105 32.2C84.105 32.3067 84.0983 32.38 84.085 32.42C83.925 33.3 83.845 34.2 83.845 35.12C83.845 35.5067 83.8583 35.8933 83.885 36.28C83.9117 36.6533 83.945 37.0267 83.985 37.4C84.065 38.1733 84.105 38.8933 84.105 39.56C84.105 40.92 83.965 42.0667 83.685 43C83.4183 43.9467 83.065 44.7067 82.625 45.28C82.185 45.8667 81.7117 46.2867 81.205 46.54C80.7117 46.8067 80.2317 46.94 79.765 46.94ZM86.0281 41.9C85.8948 41.9 85.7881 41.86 85.7081 41.78C85.6148 41.7 85.6015 41.6067 85.6681 41.5C85.8548 41.22 86.0348 40.82 86.2081 40.3C86.3681 39.7933 86.5081 39.26 86.6281 38.7C86.7615 38.14 86.8681 37.6333 86.9481 37.18C87.0415 36.7133 87.1081 36.3867 87.1481 36.2C86.9081 35.9733 86.7881 35.72 86.7881 35.44C86.7881 35.2267 86.8348 35.0467 86.9281 34.9C87.0348 34.7533 87.1148 34.6867 87.1681 34.7C87.1948 34.7 87.2281 34.7133 87.2681 34.74C87.3215 34.7533 87.3481 34.7733 87.3481 34.8C87.4281 34.1733 87.4948 33.5533 87.5481 32.94C87.6015 32.3133 87.6281 31.74 87.6281 31.22C87.6281 30.7933 87.6081 30.4133 87.5681 30.08C87.5281 29.7467 87.4681 29.48 87.3881 29.28C87.3081 29.08 87.2681 28.9267 87.2681 28.82C87.2681 28.6733 87.3081 28.6 87.3881 28.6C87.4815 28.6 87.5548 28.66 87.6081 28.78C87.7548 29.0733 87.8615 29.5333 87.9281 30.16C88.0081 30.7867 88.0481 31.5 88.0481 32.3C88.0481 32.8467 88.0348 33.4267 88.0081 34.04C87.9815 34.64 87.9348 35.24 87.8681 35.84C88.1081 35.6267 88.3548 35.42 88.6081 35.22C88.8615 35.0067 89.0815 34.7867 89.2681 34.56V34.54C89.2681 34.5133 89.2548 34.4867 89.2281 34.46C89.2148 34.4333 89.2081 34.3933 89.2081 34.34C89.2081 34.2467 89.2748 34.1333 89.4081 34C89.5415 33.8667 89.7148 33.68 89.9281 33.44C90.1548 33.1867 90.3881 32.96 90.6281 32.76C90.8681 32.5467 91.0881 32.4467 91.2881 32.46C91.4481 32.46 91.5281 32.5133 91.5281 32.62C91.5281 32.74 91.4148 32.92 91.1881 33.16C90.9615 33.4 90.6881 33.6533 90.3681 33.92C90.0615 34.1867 89.7748 34.4333 89.5081 34.66C89.2548 34.8733 89.0881 35.02 89.0081 35.1L88.2481 35.94L87.8481 36.36C88.0215 36.8 88.2215 37.2333 88.4481 37.66C88.6748 38.0867 88.9281 38.44 89.2081 38.72C89.5015 39 89.8015 39.14 90.1081 39.14C90.4281 39.14 90.7548 38.9467 91.0881 38.56C91.3148 38.28 91.5081 37.9667 91.6681 37.62C91.8281 37.2733 91.9615 37.0133 92.0681 36.84C92.1348 36.7067 92.2015 36.62 92.2681 36.58C92.3348 36.5267 92.3881 36.5 92.4281 36.5C92.5215 36.5 92.5548 36.5667 92.5281 36.7C92.4748 36.8733 92.3815 37.0933 92.2481 37.36C92.1148 37.6267 91.9815 37.88 91.8481 38.12C91.7281 38.3467 91.6348 38.5067 91.5681 38.6C91.3148 38.9733 91.0615 39.2467 90.8081 39.42C90.5548 39.5933 90.3081 39.68 90.0681 39.68C89.7615 39.68 89.4615 39.5667 89.1681 39.34C88.8748 39.1133 88.6015 38.82 88.3481 38.46C88.1081 38.1 87.8881 37.72 87.6881 37.32C87.5415 38.3333 87.3615 39.24 87.1481 40.04C86.9348 40.8533 86.7015 41.4133 86.4481 41.72C86.3281 41.84 86.1881 41.9 86.0281 41.9ZM96.3839 40C95.9572 40 95.6306 39.8 95.4039 39.4C95.1772 39.0133 95.0639 38.5867 95.0639 38.12C95.0639 37.68 95.1372 37.22 95.2839 36.74C95.4306 36.26 95.6106 35.7867 95.8239 35.32C96.0506 34.8533 96.2839 34.4267 96.5239 34.04C96.2839 34.1333 96.0572 34.18 95.8439 34.18C95.7372 34.18 95.6439 34.1667 95.5639 34.14C95.4839 34.1133 95.4172 34.0933 95.3639 34.08C95.2972 34.24 95.1772 34.5067 95.0039 34.88C94.8439 35.2533 94.6706 35.6467 94.4839 36.06C94.3106 36.46 94.1572 36.8 94.0239 37.08C93.8106 37.5333 93.6239 37.76 93.4639 37.76C93.3839 37.76 93.3439 37.7067 93.3439 37.6C93.3439 37.52 93.3772 37.4133 93.4439 37.28C93.7506 36.7067 94.0372 36.14 94.3039 35.58C94.5839 35.02 94.8372 34.48 95.0639 33.96C95.0372 33.8933 95.0106 33.8067 94.9839 33.7C94.9572 33.58 94.9439 33.4533 94.9439 33.32C94.9439 33.1733 94.9572 33.02 94.9839 32.86C95.0239 32.6867 95.0772 32.52 95.1439 32.36C95.1839 32.2667 95.2572 32.1333 95.3639 31.96C95.4706 31.7733 95.5906 31.6067 95.7239 31.46C95.8572 31.3 95.9839 31.22 96.1039 31.22C96.3306 31.22 96.4439 31.34 96.4439 31.58C96.4439 31.8067 96.3706 32.0667 96.2239 32.36C96.0906 32.6533 95.9506 32.9267 95.8039 33.18C95.6572 33.42 95.5839 33.6 95.5839 33.72C95.5839 33.8267 95.6372 33.88 95.7439 33.88C95.8906 33.88 96.0706 33.8067 96.2839 33.66C96.5106 33.5 96.6906 33.3533 96.8239 33.22C96.8906 33.1533 96.9972 33.0533 97.1439 32.92C97.2906 32.7733 97.4306 32.7 97.5639 32.7C97.6972 32.7 97.7839 32.74 97.8239 32.82C97.8772 32.9 97.9039 32.9933 97.9039 33.1C97.9039 33.22 97.8506 33.3733 97.7439 33.56C97.6372 33.7333 97.5106 33.9067 97.3639 34.08C97.2306 34.2533 97.1172 34.4 97.0239 34.52C96.8372 34.8 96.6239 35.1533 96.3839 35.58C96.1439 36.0067 95.9372 36.4667 95.7639 36.96C95.5906 37.44 95.5039 37.9 95.5039 38.34C95.5039 38.6333 95.5772 38.94 95.7239 39.26C95.8706 39.58 96.0706 39.74 96.3239 39.74C96.5506 39.74 96.7906 39.62 97.0439 39.38C97.3106 39.14 97.5572 38.8533 97.7839 38.52C98.0239 38.1867 98.2306 37.8667 98.4039 37.56C98.5906 37.2533 98.7172 37.04 98.7839 36.92C98.8106 36.8533 98.8572 36.7733 98.9239 36.68C98.9906 36.5733 99.0706 36.52 99.1639 36.52C99.2439 36.52 99.2839 36.56 99.2839 36.64C99.2839 36.7067 99.2639 36.7867 99.2239 36.88C99.1972 36.96 99.1706 37.0333 99.1439 37.1C99.0239 37.38 98.8772 37.6733 98.7039 37.98C98.5306 38.2867 98.4106 38.4933 98.3439 38.6C98.1572 38.9067 97.8772 39.2133 97.5039 39.52C97.1439 39.84 96.7706 40 96.3839 40ZM102.561 32.32C102.441 32.32 102.354 32.26 102.301 32.14C102.261 32.0067 102.241 31.9133 102.241 31.86C102.241 31.6467 102.301 31.4467 102.421 31.26C102.554 31.06 102.701 30.9533 102.861 30.94H102.921C103.081 30.94 103.187 30.98 103.241 31.06C103.307 31.1267 103.341 31.2133 103.341 31.32C103.341 31.52 103.254 31.74 103.081 31.98C102.907 32.2067 102.734 32.32 102.561 32.32ZM101.541 39.48C101.087 39.48 100.781 39.3067 100.621 38.96C100.461 38.6133 100.381 38.2133 100.381 37.76C100.381 37.3067 100.427 36.8333 100.521 36.34C100.627 35.8333 100.741 35.3733 100.861 34.96C100.994 34.5467 101.094 34.2533 101.161 34.08C101.307 33.7733 101.454 33.5133 101.601 33.3C101.747 33.0733 101.907 32.96 102.081 32.96C102.201 32.96 102.287 33.0067 102.341 33.1C102.407 33.18 102.441 33.2867 102.441 33.42C102.441 33.6867 102.367 33.96 102.221 34.24C102.074 34.5067 101.941 34.76 101.821 35C101.554 35.5467 101.341 36.0333 101.181 36.46C101.034 36.8867 100.961 37.42 100.961 38.06C100.961 38.4733 101.001 38.7733 101.081 38.96C101.174 39.1467 101.301 39.24 101.461 39.24C101.674 39.24 101.921 39.12 102.201 38.88C102.481 38.6267 102.767 38.2933 103.061 37.88C103.354 37.4667 103.614 37.02 103.841 36.54C103.987 36.2333 104.101 36.08 104.181 36.08C104.234 36.08 104.261 36.1333 104.261 36.24C104.261 36.3867 104.201 36.6 104.081 36.88C103.974 37.1467 103.841 37.42 103.681 37.7C103.534 37.98 103.394 38.2 103.261 38.36C103.034 38.6533 102.774 38.9133 102.481 39.14C102.187 39.3667 101.874 39.48 101.541 39.48ZM104.422 41.9C104.289 41.9 104.182 41.86 104.102 41.78C104.009 41.7 103.995 41.6067 104.062 41.5C104.249 41.22 104.429 40.82 104.602 40.3C104.762 39.7933 104.902 39.26 105.022 38.7C105.155 38.14 105.262 37.6333 105.342 37.18C105.435 36.7133 105.502 36.3867 105.542 36.2C105.302 35.9733 105.182 35.72 105.182 35.44C105.182 35.2267 105.229 35.0467 105.322 34.9C105.429 34.7533 105.509 34.6867 105.562 34.7C105.589 34.7 105.622 34.7133 105.662 34.74C105.715 34.7533 105.742 34.7733 105.742 34.8C105.822 34.1733 105.889 33.5533 105.942 32.94C105.995 32.3133 106.022 31.74 106.022 31.22C106.022 30.7933 106.002 30.4133 105.962 30.08C105.922 29.7467 105.862 29.48 105.782 29.28C105.702 29.08 105.662 28.9267 105.662 28.82C105.662 28.6733 105.702 28.6 105.782 28.6C105.875 28.6 105.949 28.66 106.002 28.78C106.149 29.0733 106.255 29.5333 106.322 30.16C106.402 30.7867 106.442 31.5 106.442 32.3C106.442 32.8467 106.429 33.4267 106.402 34.04C106.375 34.64 106.329 35.24 106.262 35.84C106.502 35.6267 106.749 35.42 107.002 35.22C107.255 35.0067 107.475 34.7867 107.662 34.56V34.54C107.662 34.5133 107.649 34.4867 107.622 34.46C107.609 34.4333 107.602 34.3933 107.602 34.34C107.602 34.2467 107.669 34.1333 107.802 34C107.935 33.8667 108.109 33.68 108.322 33.44C108.549 33.1867 108.782 32.96 109.022 32.76C109.262 32.5467 109.482 32.4467 109.682 32.46C109.842 32.46 109.922 32.5133 109.922 32.62C109.922 32.74 109.809 32.92 109.582 33.16C109.355 33.4 109.082 33.6533 108.762 33.92C108.455 34.1867 108.169 34.4333 107.902 34.66C107.649 34.8733 107.482 35.02 107.402 35.1L106.642 35.94L106.242 36.36C106.415 36.8 106.615 37.2333 106.842 37.66C107.069 38.0867 107.322 38.44 107.602 38.72C107.895 39 108.195 39.14 108.502 39.14C108.822 39.14 109.149 38.9467 109.482 38.56C109.709 38.28 109.902 37.9667 110.062 37.62C110.222 37.2733 110.355 37.0133 110.462 36.84C110.529 36.7067 110.595 36.62 110.662 36.58C110.729 36.5267 110.782 36.5 110.822 36.5C110.915 36.5 110.949 36.5667 110.922 36.7C110.869 36.8733 110.775 37.0933 110.642 37.36C110.509 37.6267 110.375 37.88 110.242 38.12C110.122 38.3467 110.029 38.5067 109.962 38.6C109.709 38.9733 109.455 39.2467 109.202 39.42C108.949 39.5933 108.702 39.68 108.462 39.68C108.155 39.68 107.855 39.5667 107.562 39.34C107.269 39.1133 106.995 38.82 106.742 38.46C106.502 38.1 106.282 37.72 106.082 37.32C105.935 38.3333 105.755 39.24 105.542 40.04C105.329 40.8533 105.095 41.4133 104.842 41.72C104.722 41.84 104.582 41.9 104.422 41.9ZM116.968 40.44C116.901 40.44 116.868 40.3867 116.868 40.28C116.868 40.1867 116.901 40.0733 116.968 39.94C117.035 39.8067 117.121 39.7 117.228 39.62C117.335 39.5533 117.448 39.48 117.568 39.4C117.675 39.3333 117.781 39.2733 117.888 39.22C117.875 39.1933 117.868 39.1467 117.868 39.08C117.868 38.9733 117.901 38.92 117.968 38.92C118.008 38.92 118.068 38.9667 118.148 39.06C119.188 38.4867 120.201 38.0667 121.188 37.8V37.74C121.188 37.3667 121.088 37.02 120.888 36.7C120.701 36.38 120.461 36.0533 120.168 35.72C119.875 35.3867 119.575 35.02 119.268 34.62C118.975 34.22 118.708 33.7667 118.468 33.26C118.241 32.74 118.095 32.1333 118.028 31.44C118.015 31.36 118.008 31.28 118.008 31.2C118.008 31.12 118.008 31.04 118.008 30.96C118.008 30.1067 118.201 29.3333 118.588 28.64C118.975 27.9467 119.475 27.3533 120.088 26.86C120.715 26.3533 121.388 25.96 122.108 25.68C122.681 25.4533 123.335 25.34 124.068 25.34C124.335 25.34 124.588 25.36 124.828 25.4C125.535 25.5333 126.028 25.7667 126.308 26.1C126.588 26.4333 126.728 26.7667 126.728 27.1C126.728 27.3533 126.661 27.58 126.528 27.78C126.395 27.98 126.301 28.08 126.248 28.08C126.208 28.08 126.188 28.0533 126.188 28C126.188 27.9733 126.195 27.9333 126.208 27.88C126.235 27.8133 126.255 27.7467 126.268 27.68C126.308 27.5733 126.335 27.48 126.348 27.4C126.361 27.32 126.368 27.24 126.368 27.16C126.368 26.7333 126.168 26.42 125.768 26.22C125.381 26.0067 124.968 25.9 124.528 25.9C124.475 25.9 124.415 25.9 124.348 25.9C124.281 25.9 124.215 25.9067 124.148 25.92C123.308 26.04 122.515 26.3467 121.768 26.84C121.021 27.3333 120.388 27.98 119.868 28.78C119.361 29.5667 119.028 30.4733 118.868 31.5C118.855 31.5933 118.841 31.6867 118.828 31.78C118.828 31.8733 118.828 31.96 118.828 32.04C118.828 32.6667 118.961 33.24 119.228 33.76C119.495 34.2667 119.808 34.74 120.168 35.18C120.541 35.62 120.895 36.0467 121.228 36.46C121.561 36.86 121.788 37.26 121.908 37.66C122.175 37.6067 122.435 37.5733 122.688 37.56C122.941 37.5467 123.188 37.5467 123.428 37.56C123.615 37.5867 123.708 37.64 123.708 37.72C123.708 37.8 123.575 37.84 123.308 37.84C123.121 37.84 122.915 37.8533 122.688 37.88C122.461 37.8933 122.221 37.9333 121.968 38C121.981 38.04 121.988 38.08 121.988 38.12C121.988 38.16 121.988 38.1933 121.988 38.22C121.988 38.3533 121.968 38.4933 121.928 38.64C121.755 39.1733 121.441 39.5667 120.988 39.82C120.535 40.0733 120.075 40.2 119.608 40.2C119.155 40.2 118.775 40.1067 118.468 39.92C118.361 39.8667 118.261 39.7933 118.168 39.7C117.995 39.7933 117.821 39.9 117.648 40.02C117.461 40.14 117.281 40.26 117.108 40.38C117.055 40.42 117.008 40.44 116.968 40.44ZM119.428 39.84C119.815 39.84 120.195 39.7133 120.568 39.46C120.941 39.22 121.148 38.8133 121.188 38.24C120.308 38.5467 119.401 38.9733 118.468 39.52C118.681 39.7333 119.001 39.84 119.428 39.84ZM125.409 38.84C125.236 38.84 125.089 38.7533 124.969 38.58C124.862 38.4067 124.816 38.1267 124.829 37.74C124.829 37.5533 124.882 37.2467 124.989 36.82C125.096 36.38 125.209 35.8933 125.329 35.36C125.462 34.8267 125.576 34.3067 125.669 33.8C125.776 33.2933 125.829 32.88 125.829 32.56C125.829 32.4133 125.816 32.2933 125.789 32.2C125.762 32.0933 125.696 32.04 125.589 32.04C125.509 32.04 125.436 32.08 125.369 32.16C125.302 32.2267 125.236 32.2933 125.169 32.36C125.076 32.48 125.022 32.54 125.009 32.54C124.996 32.54 124.989 32.52 124.989 32.48C124.989 32.32 125.049 32.1467 125.169 31.96C125.302 31.76 125.456 31.66 125.629 31.66C125.842 31.66 125.996 31.7667 126.089 31.98C126.182 32.18 126.229 32.4667 126.229 32.84C126.229 33.2533 126.182 33.72 126.089 34.24C125.996 34.76 125.896 35.2467 125.789 35.7C125.736 35.9133 125.689 36.1733 125.649 36.48C125.609 36.7867 125.589 37.0867 125.589 37.38C125.589 37.6333 125.609 37.8467 125.649 38.02C125.702 38.18 125.796 38.26 125.929 38.26C126.036 38.26 126.162 38.2 126.309 38.08C126.469 37.9467 126.656 37.7267 126.869 37.42C127.176 36.9933 127.449 36.5067 127.689 35.96C127.942 35.4 128.176 34.8933 128.389 34.44C128.469 34.2533 128.569 34.16 128.689 34.16C128.996 34.16 129.149 34.3267 129.149 34.66C129.149 34.9133 129.109 35.2333 129.029 35.62C128.962 35.9933 128.929 36.3533 128.929 36.7C128.929 37.3267 129.049 37.64 129.289 37.64C129.409 37.64 129.529 37.5667 129.649 37.42C129.782 37.26 129.856 37.1667 129.869 37.14C129.949 37.0467 130.022 37 130.089 37C130.169 37 130.209 37.0467 130.209 37.14C130.209 37.3133 130.109 37.5 129.909 37.7C129.709 37.9 129.496 38 129.269 38C129.056 38 128.882 37.9267 128.749 37.78C128.629 37.62 128.516 37.4133 128.409 37.16C128.289 36.8533 128.229 36.5867 128.229 36.36C128.229 36.1333 128.216 35.9133 128.189 35.7C128.096 36.02 127.936 36.36 127.709 36.72C127.496 37.08 127.249 37.4267 126.969 37.76C126.702 38.08 126.429 38.34 126.149 38.54C125.869 38.74 125.622 38.84 125.409 38.84ZM131.704 45.52C131.504 45.52 131.344 45.3867 131.224 45.12C131.104 44.8667 131.017 44.56 130.964 44.2C130.897 43.84 130.864 43.5067 130.864 43.2C130.864 43.0533 130.87 42.84 130.884 42.56C130.897 42.28 130.917 41.98 130.944 41.66C130.97 41.34 130.997 41.04 131.024 40.76C131.05 40.48 131.07 40.2667 131.084 40.12C131.204 39.2133 131.384 38.34 131.624 37.5C131.864 36.6467 132.124 35.8133 132.404 35C132.417 34.9733 132.43 34.9333 132.444 34.88C132.47 34.8267 132.49 34.8 132.504 34.8V34.74C132.37 34.7933 132.197 34.92 131.984 35.12C131.784 35.32 131.637 35.4733 131.544 35.58C131.45 35.6733 131.364 35.7733 131.284 35.88C131.204 35.9733 131.11 36.02 131.004 36.02C130.897 36.02 130.844 35.96 130.844 35.84C130.844 35.6933 130.924 35.5467 131.084 35.4C131.23 35.24 131.397 35.0933 131.584 34.96C131.77 34.8133 131.97 34.68 132.184 34.56C132.41 34.44 132.57 34.3533 132.664 34.3C132.704 34.2733 132.73 34.24 132.744 34.2C132.77 34.16 132.79 34.12 132.804 34.08C132.897 33.9333 132.99 33.7933 133.084 33.66C133.19 33.5267 133.33 33.4333 133.504 33.38C133.624 33.3933 133.757 33.42 133.904 33.46C134.05 33.5 134.137 33.5933 134.164 33.74C134.164 33.7933 134.177 33.82 134.204 33.82V33.84C134.27 33.84 134.35 33.8333 134.444 33.82C134.55 33.7933 134.67 33.78 134.804 33.78C135.324 33.78 135.744 33.9133 136.064 34.18C136.384 34.4467 136.544 34.8 136.544 35.24C136.544 35.6533 136.424 36.1 136.184 36.58C135.944 37.0467 135.684 37.4267 135.404 37.72C134.964 38.16 134.497 38.5467 134.004 38.88C133.524 39.2 133.11 39.36 132.764 39.36C132.55 39.36 132.404 39.3 132.324 39.18C132.257 39.0733 132.224 38.94 132.224 38.78C132.224 38.5533 132.324 38.3267 132.524 38.1C132.724 37.8733 132.924 37.68 133.124 37.52C133.35 37.3333 133.584 37.16 133.824 37C134.077 36.84 134.29 36.7067 134.464 36.6C134.557 36.5333 134.644 36.4733 134.724 36.42C134.817 36.3667 134.897 36.34 134.964 36.34C135.004 36.34 135.024 36.36 135.024 36.4C135.024 36.4267 134.944 36.4933 134.784 36.6C134.637 36.7067 134.51 36.8 134.404 36.88C134.324 36.9467 134.184 37.0667 133.984 37.24C133.784 37.4 133.57 37.5867 133.344 37.8C133.13 38 132.944 38.2067 132.784 38.42C132.624 38.6333 132.544 38.82 132.544 38.98C132.757 38.98 132.99 38.8933 133.244 38.72C133.51 38.5333 133.77 38.32 134.024 38.08C134.29 37.84 134.517 37.64 134.704 37.48C134.877 37.32 135.084 37.1 135.324 36.82C135.564 36.54 135.777 36.24 135.964 35.92C136.15 35.6 136.244 35.3067 136.244 35.04C136.244 34.6933 136.11 34.44 135.844 34.28C135.59 34.1067 135.284 34.02 134.924 34.02C134.804 34.02 134.65 34.0333 134.464 34.06C134.277 34.0867 134.164 34.1133 134.124 34.14C133.83 34.5933 133.55 35.0533 133.284 35.52C133.017 35.9867 132.77 36.4667 132.544 36.96C132.17 37.76 131.87 38.5733 131.644 39.4C131.43 40.2267 131.29 41.12 131.224 42.08C131.21 42.3067 131.19 42.5467 131.164 42.8C131.15 43.0533 131.15 43.3067 131.164 43.56C131.177 43.6933 131.204 43.9067 131.244 44.2C131.284 44.4933 131.35 44.76 131.444 45C131.537 45.24 131.664 45.36 131.824 45.36C131.837 45.36 131.864 45.36 131.904 45.36C131.944 45.36 131.964 45.3667 131.964 45.38V45.44C131.87 45.4933 131.784 45.52 131.704 45.52ZM138.343 45.52C138.143 45.52 137.983 45.3867 137.863 45.12C137.743 44.8667 137.656 44.56 137.603 44.2C137.536 43.84 137.503 43.5067 137.503 43.2C137.503 43.0533 137.509 42.84 137.523 42.56C137.536 42.28 137.556 41.98 137.583 41.66C137.609 41.34 137.636 41.04 137.663 40.76C137.689 40.48 137.709 40.2667 137.723 40.12C137.843 39.2133 138.023 38.34 138.263 37.5C138.503 36.6467 138.763 35.8133 139.043 35C139.056 34.9733 139.069 34.9333 139.083 34.88C139.109 34.8267 139.129 34.8 139.143 34.8V34.74C139.009 34.7933 138.836 34.92 138.623 35.12C138.423 35.32 138.276 35.4733 138.183 35.58C138.089 35.6733 138.003 35.7733 137.923 35.88C137.843 35.9733 137.749 36.02 137.643 36.02C137.536 36.02 137.483 35.96 137.483 35.84C137.483 35.6933 137.563 35.5467 137.723 35.4C137.869 35.24 138.036 35.0933 138.223 34.96C138.409 34.8133 138.609 34.68 138.823 34.56C139.049 34.44 139.209 34.3533 139.303 34.3C139.343 34.2733 139.369 34.24 139.383 34.2C139.409 34.16 139.429 34.12 139.443 34.08C139.536 33.9333 139.629 33.7933 139.723 33.66C139.829 33.5267 139.969 33.4333 140.143 33.38C140.263 33.3933 140.396 33.42 140.543 33.46C140.689 33.5 140.776 33.5933 140.803 33.74C140.803 33.7933 140.816 33.82 140.843 33.82V33.84C140.909 33.84 140.989 33.8333 141.083 33.82C141.189 33.7933 141.309 33.78 141.443 33.78C141.963 33.78 142.383 33.9133 142.703 34.18C143.023 34.4467 143.183 34.8 143.183 35.24C143.183 35.6533 143.063 36.1 142.823 36.58C142.583 37.0467 142.323 37.4267 142.043 37.72C141.603 38.16 141.136 38.5467 140.643 38.88C140.163 39.2 139.749 39.36 139.403 39.36C139.189 39.36 139.043 39.3 138.963 39.18C138.896 39.0733 138.863 38.94 138.863 38.78C138.863 38.5533 138.963 38.3267 139.163 38.1C139.363 37.8733 139.563 37.68 139.763 37.52C139.989 37.3333 140.223 37.16 140.463 37C140.716 36.84 140.929 36.7067 141.103 36.6C141.196 36.5333 141.283 36.4733 141.363 36.42C141.456 36.3667 141.536 36.34 141.603 36.34C141.643 36.34 141.663 36.36 141.663 36.4C141.663 36.4267 141.583 36.4933 141.423 36.6C141.276 36.7067 141.149 36.8 141.043 36.88C140.963 36.9467 140.823 37.0667 140.623 37.24C140.423 37.4 140.209 37.5867 139.983 37.8C139.769 38 139.583 38.2067 139.423 38.42C139.263 38.6333 139.183 38.82 139.183 38.98C139.396 38.98 139.629 38.8933 139.883 38.72C140.149 38.5333 140.409 38.32 140.663 38.08C140.929 37.84 141.156 37.64 141.343 37.48C141.516 37.32 141.723 37.1 141.963 36.82C142.203 36.54 142.416 36.24 142.603 35.92C142.789 35.6 142.883 35.3067 142.883 35.04C142.883 34.6933 142.749 34.44 142.483 34.28C142.229 34.1067 141.923 34.02 141.563 34.02C141.443 34.02 141.289 34.0333 141.103 34.06C140.916 34.0867 140.803 34.1133 140.763 34.14C140.469 34.5933 140.189 35.0533 139.923 35.52C139.656 35.9867 139.409 36.4667 139.183 36.96C138.809 37.76 138.509 38.5733 138.283 39.4C138.069 40.2267 137.929 41.12 137.863 42.08C137.849 42.3067 137.829 42.5467 137.803 42.8C137.789 43.0533 137.789 43.3067 137.803 43.56C137.816 43.6933 137.843 43.9067 137.883 44.2C137.923 44.4933 137.989 44.76 138.083 45C138.176 45.24 138.303 45.36 138.463 45.36C138.476 45.36 138.503 45.36 138.543 45.36C138.583 45.36 138.603 45.3667 138.603 45.38V45.44C138.509 45.4933 138.423 45.52 138.343 45.52ZM148.002 42.18C147.829 42.18 147.662 42.1133 147.502 41.98C147.355 41.8467 147.229 41.7133 147.122 41.58C146.695 41.0867 146.335 40.4333 146.042 39.62C145.762 38.8067 145.549 37.9133 145.402 36.94C145.255 35.9533 145.182 34.9533 145.182 33.94C145.182 32.9933 145.242 32.0733 145.362 31.18C145.495 30.2867 145.695 29.4733 145.962 28.74C146.229 28.0067 146.562 27.42 146.962 26.98C147.482 26.3933 147.982 26.1 148.462 26.1C148.755 26.1 148.989 26.2333 149.162 26.5C149.349 26.7533 149.442 27.16 149.442 27.72C149.442 28.2533 149.335 28.9333 149.122 29.76C148.922 30.5733 148.575 31.5467 148.082 32.68C147.909 33.0533 147.722 33.4267 147.522 33.8C147.335 34.1733 147.135 34.5667 146.922 34.98C146.842 35.14 146.775 35.22 146.722 35.22C146.695 35.22 146.682 35.1933 146.682 35.14C146.682 35.0333 146.729 34.8933 146.822 34.72C148.035 32.44 148.642 30.1733 148.642 27.92C148.642 27.0267 148.455 26.58 148.082 26.58C147.815 26.58 147.502 26.84 147.142 27.36C146.649 28.0933 146.309 28.9667 146.122 29.98C145.935 30.98 145.842 31.9933 145.842 33.02C145.842 33.7933 145.875 34.5467 145.942 35.28C146.009 36 146.089 36.6533 146.182 37.24C146.222 37.4933 146.282 37.8333 146.362 38.26C146.442 38.6867 146.549 39.1333 146.682 39.6C146.815 40.08 146.962 40.5133 147.122 40.9C147.295 41.3 147.482 41.5867 147.682 41.76C147.735 41.8 147.789 41.84 147.842 41.88C147.909 41.9333 147.982 41.9667 148.062 41.98C148.182 41.98 148.242 42.0133 148.242 42.08C148.242 42.1467 148.162 42.18 148.002 42.18ZM152.001 32.32C151.881 32.32 151.795 32.26 151.741 32.14C151.701 32.0067 151.681 31.9133 151.681 31.86C151.681 31.6467 151.741 31.4467 151.861 31.26C151.995 31.06 152.141 30.9533 152.301 30.94H152.361C152.521 30.94 152.628 30.98 152.681 31.06C152.748 31.1267 152.781 31.2133 152.781 31.32C152.781 31.52 152.695 31.74 152.521 31.98C152.348 32.2067 152.175 32.32 152.001 32.32ZM150.981 39.48C150.528 39.48 150.221 39.3067 150.061 38.96C149.901 38.6133 149.821 38.2133 149.821 37.76C149.821 37.3067 149.868 36.8333 149.961 36.34C150.068 35.8333 150.181 35.3733 150.301 34.96C150.435 34.5467 150.535 34.2533 150.601 34.08C150.748 33.7733 150.895 33.5133 151.041 33.3C151.188 33.0733 151.348 32.96 151.521 32.96C151.641 32.96 151.728 33.0067 151.781 33.1C151.848 33.18 151.881 33.2867 151.881 33.42C151.881 33.6867 151.808 33.96 151.661 34.24C151.515 34.5067 151.381 34.76 151.261 35C150.995 35.5467 150.781 36.0333 150.621 36.46C150.475 36.8867 150.401 37.42 150.401 38.06C150.401 38.4733 150.441 38.7733 150.521 38.96C150.615 39.1467 150.741 39.24 150.901 39.24C151.115 39.24 151.361 39.12 151.641 38.88C151.921 38.6267 152.208 38.2933 152.501 37.88C152.795 37.4667 153.055 37.02 153.281 36.54C153.428 36.2333 153.541 36.08 153.621 36.08C153.675 36.08 153.701 36.1333 153.701 36.24C153.701 36.3867 153.641 36.6 153.521 36.88C153.415 37.1467 153.281 37.42 153.121 37.7C152.975 37.98 152.835 38.2 152.701 38.36C152.475 38.6533 152.215 38.9133 151.921 39.14C151.628 39.3667 151.315 39.48 150.981 39.48ZM156.562 39.26C156.082 39.26 155.662 38.98 155.302 38.42C154.956 37.8467 154.782 36.9467 154.782 35.72C154.782 34.92 154.882 34.28 155.082 33.8C155.282 33.3067 155.529 32.9467 155.822 32.72C156.116 32.4933 156.396 32.38 156.662 32.38C156.929 32.38 157.156 32.4733 157.342 32.66C157.529 32.8333 157.622 33.0867 157.622 33.42C157.622 33.74 157.529 34.08 157.342 34.44C157.156 34.7867 156.929 35.1067 156.662 35.4C156.409 35.68 156.156 35.8667 155.902 35.96C155.849 35.9867 155.782 36 155.702 36C155.649 36 155.622 35.98 155.622 35.94C155.622 35.8333 155.729 35.7133 155.942 35.58C156.209 35.3933 156.462 35.1133 156.702 34.74C156.942 34.3533 157.062 34.0133 157.062 33.72C157.062 33.5467 157.022 33.4133 156.942 33.32C156.862 33.2133 156.769 33.16 156.662 33.16C156.462 33.16 156.242 33.32 156.002 33.64C155.776 33.9467 155.609 34.48 155.502 35.24C155.476 35.4533 155.449 35.66 155.422 35.86C155.409 36.0467 155.402 36.2333 155.402 36.42C155.402 37.1667 155.516 37.7533 155.742 38.18C155.969 38.5933 156.269 38.8 156.642 38.8C156.962 38.8 157.322 38.6133 157.722 38.24C158.122 37.8533 158.516 37.2533 158.902 36.44C158.996 36.2267 159.102 36.12 159.222 36.12C159.302 36.12 159.342 36.1733 159.342 36.28C159.342 36.3733 159.316 36.4733 159.262 36.58C158.916 37.4333 158.496 38.0933 158.002 38.56C157.509 39.0267 157.029 39.26 156.562 39.26ZM163.007 40C162.581 40 162.254 39.8 162.027 39.4C161.801 39.0133 161.687 38.5867 161.687 38.12C161.687 37.68 161.761 37.22 161.907 36.74C162.054 36.26 162.234 35.7867 162.447 35.32C162.674 34.8533 162.907 34.4267 163.147 34.04C162.907 34.1333 162.681 34.18 162.467 34.18C162.361 34.18 162.267 34.1667 162.187 34.14C162.107 34.1133 162.041 34.0933 161.987 34.08C161.921 34.24 161.801 34.5067 161.627 34.88C161.467 35.2533 161.294 35.6467 161.107 36.06C160.934 36.46 160.781 36.8 160.647 37.08C160.434 37.5333 160.247 37.76 160.087 37.76C160.007 37.76 159.967 37.7067 159.967 37.6C159.967 37.52 160.001 37.4133 160.067 37.28C160.374 36.7067 160.661 36.14 160.927 35.58C161.207 35.02 161.461 34.48 161.687 33.96C161.661 33.8933 161.634 33.8067 161.607 33.7C161.581 33.58 161.567 33.4533 161.567 33.32C161.567 33.1733 161.581 33.02 161.607 32.86C161.647 32.6867 161.701 32.52 161.767 32.36C161.807 32.2667 161.881 32.1333 161.987 31.96C162.094 31.7733 162.214 31.6067 162.347 31.46C162.481 31.3 162.607 31.22 162.727 31.22C162.954 31.22 163.067 31.34 163.067 31.58C163.067 31.8067 162.994 32.0667 162.847 32.36C162.714 32.6533 162.574 32.9267 162.427 33.18C162.281 33.42 162.207 33.6 162.207 33.72C162.207 33.8267 162.261 33.88 162.367 33.88C162.514 33.88 162.694 33.8067 162.907 33.66C163.134 33.5 163.314 33.3533 163.447 33.22C163.514 33.1533 163.621 33.0533 163.767 32.92C163.914 32.7733 164.054 32.7 164.187 32.7C164.321 32.7 164.407 32.74 164.447 32.82C164.501 32.9 164.527 32.9933 164.527 33.1C164.527 33.22 164.474 33.3733 164.367 33.56C164.261 33.7333 164.134 33.9067 163.987 34.08C163.854 34.2533 163.741 34.4 163.647 34.52C163.461 34.8 163.247 35.1533 163.007 35.58C162.767 36.0067 162.561 36.4667 162.387 36.96C162.214 37.44 162.127 37.9 162.127 38.34C162.127 38.6333 162.201 38.94 162.347 39.26C162.494 39.58 162.694 39.74 162.947 39.74C163.174 39.74 163.414 39.62 163.667 39.38C163.934 39.14 164.181 38.8533 164.407 38.52C164.647 38.1867 164.854 37.8667 165.027 37.56C165.214 37.2533 165.341 37.04 165.407 36.92C165.434 36.8533 165.481 36.7733 165.547 36.68C165.614 36.5733 165.694 36.52 165.787 36.52C165.867 36.52 165.907 36.56 165.907 36.64C165.907 36.7067 165.887 36.7867 165.847 36.88C165.821 36.96 165.794 37.0333 165.767 37.1C165.647 37.38 165.501 37.6733 165.327 37.98C165.154 38.2867 165.034 38.4933 164.967 38.6C164.781 38.9067 164.501 39.2133 164.127 39.52C163.767 39.84 163.394 40 163.007 40Z" fill="#FD7668"/>
</g>
<defs>
<linearGradient id="paint0_linear_12_382" x1="33.0078" y1="52.7408" x2="10.932" y2="10.3478" gradientUnits="userSpaceOnUse">
<stop stop-color="#FF1727"/>
<stop offset="1" stop-color="#F9FEC6"/>
</linearGradient>
<linearGradient id="paint1_linear_12_382" x1="29.9146" y1="-0.628252" x2="32.4377" y2="53.265" gradientUnits="userSpaceOnUse">
<stop stop-color="#FF54FF"/>
<stop offset="0.49" stop-color="#9C00BF"/>
<stop offset="1" stop-color="#5A00A9"/>
</linearGradient>
<linearGradient id="paint2_linear_12_382" x1="41.2699" y1="55.0721" x2="21.0833" y2="1.77071" gradientUnits="userSpaceOnUse">
<stop stop-color="#ED1C24"/>
<stop offset="1" stop-color="#FCEE21"/>
</linearGradient>
<linearGradient id="paint3_linear_12_382" x1="49.3306" y1="4.96277" x2="37.4263" y2="52.7797" gradientUnits="userSpaceOnUse">
<stop stop-color="#67FFE5"/>
<stop offset="0.32" stop-color="#00B0D4"/>
<stop offset="0.7" stop-color="#0070BF"/>
<stop offset="1" stop-color="#003CA9"/>
</linearGradient>
<linearGradient id="paint4_linear_12_382" x1="41.0658" y1="47.5502" x2="51.5775" y2="20.2495" gradientUnits="userSpaceOnUse">
<stop stop-color="#00A8C5"/>
<stop offset="0.33" stop-color="#89D776"/>
<stop offset="1" stop-color="#FFFF00"/>
</linearGradient>
<linearGradient id="paint5_linear_12_382" x1="52.8466" y1="-0.119473" x2="40.9423" y2="47.6975" gradientUnits="userSpaceOnUse">
<stop stop-color="#67FFE5"/>
<stop offset="0.32" stop-color="#00B0D4"/>
<stop offset="0.7" stop-color="#0070BF"/>
<stop offset="1" stop-color="#003CA9"/>
</linearGradient>
<linearGradient id="paint6_linear_12_382" x1="43.6235" y1="43.6308" x2="54.1352" y2="16.3301" gradientUnits="userSpaceOnUse">
<stop stop-color="#00A8C5"/>
<stop offset="0.33" stop-color="#89D776"/>
<stop offset="1" stop-color="#FFFF00"/>
</linearGradient>
<linearGradient id="paint7_linear_12_382" x1="34.7391" y1="5.90337" x2="37.2629" y2="59.7958" gradientUnits="userSpaceOnUse">
<stop stop-color="#FF54FF"/>
<stop offset="0.49" stop-color="#9C00BF"/>
<stop offset="1" stop-color="#5A00A9"/>
</linearGradient>
<linearGradient id="paint8_linear_12_382" x1="29.3944" y1="-7.21318" x2="31.579" y2="46.6881" gradientUnits="userSpaceOnUse">
<stop stop-color="#FF0000"/>
<stop offset="0.49" stop-color="#9C00BF"/>
<stop offset="1" stop-color="#5A00A9"/>
</linearGradient>
<linearGradient id="paint9_linear_12_382" x1="42.5332" y1="64.5978" x2="22.3459" y2="11.2972" gradientUnits="userSpaceOnUse">
<stop stop-color="#ED1C24"/>
<stop offset="1" stop-color="#FCEE21"/>
</linearGradient>
<linearGradient id="paint10_linear_12_382" x1="32.3777" y1="45.48" x2="10.3034" y2="3.08698" gradientUnits="userSpaceOnUse">
<stop stop-color="#FF1727"/>
<stop offset="1" stop-color="#F9FEC6"/>
</linearGradient>
<linearGradient id="paint11_linear_12_382" x1="35.0977" y1="59.9887" x2="13.0228" y2="17.5964" gradientUnits="userSpaceOnUse">
<stop stop-color="#FF1727"/>
<stop offset="1" stop-color="#F9FEC6"/>
</linearGradient>
<clipPath id="clip0_12_382">
<rect width="164" height="50" fill="white"/>
</clipPath>
</defs>
</svg>
