<svg xmlns="http://www.w3.org/2000/svg" width="1821" height="775" viewBox="0 0 1821 775" version="1.1"><path d="M 339.500 0.613 C 317.810 2.827, 288.205 10.653, 262.501 20.967 C 226.486 35.419, 171.423 67.128, 137.549 92.922 C 132.075 97.090, 127.138 100.813, 126.577 101.196 C 126.017 101.578, 125.804 102.138, 126.106 102.439 C 126.407 102.740, 132.860 98.462, 140.445 92.932 C 170.394 71.097, 190.020 59.045, 215.013 47.142 C 258.702 26.336, 301.927 14.775, 341.501 13.312 C 377.646 11.976, 407.298 19.033, 430.553 34.507 C 440.690 41.252, 452.033 52.213, 458.061 61.090 C 462.536 67.679, 471.244 85.476, 472.440 90.476 C 473.087 93.181, 472.791 92.999, 469.188 88.476 C 458.172 74.645, 433.893 59.820, 409.500 52.031 C 351.952 33.656, 289.765 44.357, 236 81.888 C 220.353 92.810, 190 119.410, 190 122.200 C 190 122.760, 193.938 119.486, 198.750 114.926 C 231.244 84.132, 266.825 64.766, 306.231 56.426 C 321.366 53.223, 350.996 52.011, 366.710 53.952 C 412.466 59.605, 453.845 82.642, 459.990 105.884 C 461.569 111.856, 460.635 115.414, 457.705 114.590 C 443.687 110.649, 422.174 112.836, 403 120.153 C 363.100 135.378, 318.365 166.617, 276.072 208.787 C 258.655 226.154, 257.244 227.321, 250.341 230.063 C 220.498 241.918, 195.978 259.070, 166.085 289 L 149.606 305.500 154.722 306 L 159.838 306.500 152.922 313.741 L 146.006 320.982 138.465 317.986 C 118.960 310.238, 100.201 298.106, 80.737 280.653 C 76.468 276.824, 72.753 273.914, 72.481 274.185 C 71.773 274.894, 90.376 295.344, 98.568 302.862 C 107.129 310.718, 116.179 317.515, 123.561 321.633 L 129.178 324.767 124.556 326.532 C 119.108 328.612, 114.960 327.774, 106.250 322.832 C 103.362 321.194, 101 320.251, 101 320.736 C 101 322.471, 113.599 334.188, 119 337.476 C 126.955 342.319, 136.088 345.083, 145.950 345.632 L 154.500 346.108 161 337.824 C 192.767 297.342, 233.634 262.836, 272.133 243.988 C 281.291 239.505, 282.423 239.209, 295.058 237.994 C 312.531 236.315, 332.699 237.162, 344 240.051 C 365.963 245.664, 380.317 256.528, 393.477 277.500 C 395.548 280.800, 397.406 283.681, 397.606 283.901 C 397.806 284.122, 400.166 282.247, 402.852 279.735 C 412.851 270.382, 424.830 266.461, 440.750 267.329 C 446.387 267.636, 451 267.678, 451 267.422 C 451 267.166, 449.641 263.960, 447.981 260.297 C 446.320 256.635, 445.308 253.324, 445.731 252.939 C 446.896 251.879, 468.137 248.138, 480 246.904 C 499.253 244.901, 518.032 247.487, 531.020 253.931 C 539.251 258.015, 545.923 263.430, 553.806 272.425 L 557.113 276.198 565.556 273.868 C 570.200 272.587, 574 271.168, 574 270.714 C 574 269.010, 565.681 257.732, 559.705 251.334 C 551.834 242.908, 537.084 231.417, 530.192 228.342 C 522.276 224.811, 512.740 223.441, 504.947 224.715 C 501.401 225.295, 498.428 225.709, 498.339 225.635 C 498.251 225.561, 499.267 222.258, 500.598 218.295 C 503.113 210.806, 504.972 195.999, 503.397 196.001 C 502.904 196.002, 501.251 198.225, 499.725 200.943 C 493.117 212.708, 485.434 219.989, 479.618 219.996 C 472.749 220.005, 467.409 213.912, 459.024 196.500 C 444.705 166.764, 444.002 165.050, 446.527 166.010 C 458.319 170.494, 467.086 178.152, 473.991 190 C 476.395 194.125, 479.025 198.287, 479.836 199.250 C 482.892 202.878, 487.462 200.807, 498.454 190.812 L 503.407 186.308 501.159 175.594 C 498.796 164.331, 494.242 149.080, 489.114 135.259 C 486.062 127.031, 486.060 127.013, 487.915 123.759 C 492.013 116.572, 491.247 101.672, 485.962 85.789 C 479.763 67.157, 470.398 52.226, 455.593 37.375 C 437.676 19.400, 418.658 9.184, 391.500 2.945 C 384.472 1.331, 378.226 0.804, 363 0.542 C 352.275 0.357, 341.700 0.389, 339.500 0.613 M 440.376 119.250 C 436.136 123.819, 433.811 127.831, 434.257 129.809 C 434.521 130.978, 435.127 130.377, 436.222 127.860 C 437.093 125.859, 439.477 122.371, 441.519 120.110 C 443.562 117.850, 444.819 116, 444.313 116 C 443.806 116, 442.035 117.463, 440.376 119.250 M 445.813 120.750 C 442.683 124.017, 439 129.802, 439 131.450 C 439 133.007, 440.956 131.695, 441.534 129.750 C 441.902 128.512, 443.583 125.700, 445.269 123.500 C 446.955 121.300, 448.765 118.938, 449.290 118.250 C 451.214 115.731, 449.310 117.101, 445.813 120.750 M 472.671 128.662 C 472.307 129.026, 473.069 130.713, 474.363 132.412 C 479.536 139.200, 485 153.806, 485 160.845 C 485 163.331, 487.585 164.815, 489.164 163.236 C 490.596 161.804, 486.819 147.179, 483.008 139.398 C 478.328 129.840, 474.975 126.358, 472.671 128.662 M 369 195.709 C 385.316 205.025, 402.520 218.555, 409.905 227.880 C 412.679 231.382, 413.725 232, 416.884 232 C 421.317 232, 423 230.575, 423 226.822 C 423 224.616, 421.610 222.882, 416.250 218.402 C 403.394 207.657, 389.067 199.445, 375 194.757 C 361.087 190.119, 359.619 190.352, 369 195.709 M 319.053 221.528 C 313.858 222.318, 309.133 223.160, 308.553 223.399 C 307.974 223.639, 314.475 223.856, 323 223.882 C 339.902 223.934, 351.306 225.505, 362.500 229.324 C 375.553 233.777, 388.098 241.240, 397.622 250.219 C 402.066 254.409, 403.064 254.926, 405.163 254.128 C 412.224 251.443, 411.328 245.920, 402.790 239.501 C 394.617 233.357, 378.284 225.440, 368.500 222.880 C 357.982 220.128, 332.788 219.439, 319.053 221.528 M 0.545 289.777 C 2.492 311.769, 5.872 344.279, 12.473 404.500 C 16.572 441.900, 22.658 499.725, 25.997 533 C 29.335 566.275, 32.538 596.650, 33.115 600.500 C 37.115 627.224, 46.491 636.200, 73.500 639.164 C 81.132 640.002, 84.921 639.971, 89.500 639.034 C 98.280 637.237, 101.873 632.883, 114.689 608.500 C 159.088 524.030, 201.132 445.504, 206.580 436.874 L 209.176 432.761 210.892 435.630 C 211.836 437.209, 224.959 462.687, 240.054 492.249 C 255.149 521.811, 267.763 545.998, 268.085 545.999 C 269.373 546.001, 274.632 518.439, 277.052 499.001 C 279.995 475.361, 279.721 436.108, 276.452 413.115 L 274.801 401.500 257.150 366.500 C 238.168 328.859, 235.301 324.595, 227.384 322.230 C 222.448 320.755, 214.760 320.691, 202.136 322.021 C 192.035 323.085, 185.759 325.334, 182.345 329.114 C 179.253 332.537, 169.493 350.380, 143.025 401 C 115.768 453.127, 98.622 485.139, 95.408 489.899 C 93.151 493.242, 93.104 493.258, 92.597 490.899 C 91.893 487.626, 87.942 450.582, 82.475 396 C 74.861 319.972, 70.870 286.389, 69.278 284.955 C 68.850 284.570, 53.076 283.985, 34.225 283.655 L -0.050 283.055 0.545 289.777 M 270.029 310.250 C 283.972 334.099, 295.332 363.938, 301.356 392.539 C 308.850 428.117, 309.941 468.470, 304.466 507.500 C 298.192 552.224, 282.875 599.510, 261.061 641.500 C 237.713 686.440, 211.872 721.529, 175.858 757.194 C 166.586 766.376, 159 774.090, 159 774.335 C 159 775.460, 183.259 769.487, 195.209 765.419 C 284.226 735.117, 361.693 646.909, 394.482 538.516 C 401.580 515.050, 405.839 493.661, 408.588 467.666 C 409.849 455.748, 410.067 446.504, 409.606 424.500 C 409.284 409.100, 408.746 394.617, 408.411 392.315 L 407.802 388.131 419.651 384.453 C 462.827 371.052, 473.688 367.526, 484.321 363.458 C 520.847 349.486, 536.945 335.505, 535.776 318.771 C 535.556 315.620, 535.057 312.724, 534.668 312.334 C 534.019 311.686, 304.221 305.156, 278.230 305.047 L 266.960 305 270.029 310.250 M 438.431 427.500 C 438.432 440.700, 438.574 445.962, 438.747 439.193 C 438.921 432.424, 438.920 421.624, 438.746 415.193 C 438.572 408.762, 438.431 414.300, 438.431 427.500 M 534.431 427.500 C 534.432 440.700, 534.574 445.962, 534.747 439.193 C 534.921 432.424, 534.920 421.624, 534.746 415.193 C 534.572 408.762, 534.431 414.300, 534.431 427.500 M 959.431 427.500 C 959.432 440.700, 959.574 445.962, 959.747 439.193 C 959.921 432.424, 959.920 421.624, 959.746 415.193 C 959.572 408.762, 959.431 414.300, 959.431 427.500 M 1031.431 427.500 C 1031.432 440.700, 1031.574 445.962, 1031.747 439.193 C 1031.921 432.424, 1031.920 421.624, 1031.746 415.193 C 1031.572 408.762, 1031.431 414.300, 1031.431 427.500 M 1291.431 427.500 C 1291.432 440.700, 1291.574 445.962, 1291.747 439.193 C 1291.921 432.424, 1291.920 421.624, 1291.746 415.193 C 1291.572 408.762, 1291.431 414.300, 1291.431 427.500 M 1386.431 427.500 C 1386.432 440.700, 1386.574 445.962, 1386.747 439.193 C 1386.921 432.424, 1386.920 421.624, 1386.746 415.193 C 1386.572 408.762, 1386.431 414.300, 1386.431 427.500 M 1466.431 427.500 C 1466.432 440.700, 1466.574 445.962, 1466.747 439.193 C 1466.921 432.424, 1466.920 421.624, 1466.746 415.193 C 1466.572 408.762, 1466.431 414.300, 1466.431 427.500 M 1574.431 427.500 C 1574.432 440.700, 1574.574 445.962, 1574.747 439.193 C 1574.921 432.424, 1574.920 421.624, 1574.746 415.193 C 1574.572 408.762, 1574.431 414.300, 1574.431 427.500 M 702.464 501 C 702.464 528.775, 702.592 540.138, 702.749 526.250 C 702.906 512.363, 702.906 489.638, 702.749 475.750 C 702.592 461.863, 702.464 473.225, 702.464 501 M 761.400 465.500 C 761.401 473.750, 761.556 476.992, 761.744 472.704 C 761.932 468.417, 761.931 461.667, 761.742 457.704 C 761.552 453.742, 761.399 457.250, 761.400 465.500 M 893.455 489.500 C 893.455 510.950, 893.587 519.583, 893.749 508.684 C 893.911 497.785, 893.910 480.235, 893.748 469.684 C 893.587 459.133, 893.454 468.050, 893.455 489.500 M 952.455 489.500 C 952.455 510.950, 952.587 519.583, 952.749 508.684 C 952.911 497.785, 952.910 480.235, 952.748 469.684 C 952.587 459.133, 952.454 468.050, 952.455 489.500 M 1019.455 490 C 1019.455 511.725, 1019.587 520.612, 1019.749 509.750 C 1019.910 498.887, 1019.910 481.112, 1019.749 470.250 C 1019.587 459.387, 1019.455 468.275, 1019.455 490 M 1660.464 501 C 1660.464 528.775, 1660.592 540.138, 1660.749 526.250 C 1660.906 512.363, 1660.906 489.638, 1660.749 475.750 C 1660.592 461.863, 1660.464 473.225, 1660.464 501 M 1719.464 501 C 1719.464 528.775, 1719.592 540.138, 1719.749 526.250 C 1719.906 512.363, 1719.906 489.638, 1719.749 475.750 C 1719.592 461.863, 1719.464 473.225, 1719.464 501 M 761.405 535.500 C 761.406 544.300, 761.559 547.766, 761.745 543.203 C 761.930 538.639, 761.929 531.439, 761.742 527.203 C 761.555 522.966, 761.404 526.700, 761.405 535.500 M 1386.431 574.500 C 1386.432 587.700, 1386.574 592.962, 1386.747 586.193 C 1386.921 579.424, 1386.920 568.624, 1386.746 562.193 C 1386.572 555.762, 1386.431 561.300, 1386.431 574.500 M 1466.431 574.500 C 1466.432 587.700, 1466.574 592.962, 1466.747 586.193 C 1466.921 579.424, 1466.920 568.624, 1466.746 562.193 C 1466.572 555.762, 1466.431 561.300, 1466.431 574.500 M 620.999 654.799 L 621.498 685.500 621.764 655.565 C 621.911 639.101, 621.686 625.286, 621.265 624.864 C 620.844 624.443, 620.725 637.913, 620.999 654.799 M 1499.453 662.500 C 1499.453 682.850, 1499.586 691.033, 1499.749 680.685 C 1499.912 670.336, 1499.911 653.686, 1499.748 643.685 C 1499.585 633.683, 1499.452 642.150, 1499.453 662.500 M 1366.212 646.750 L 1366 658 1372.250 657.811 L 1378.500 657.622 1372.783 657.262 L 1367.067 656.902 1366.746 646.201 L 1366.425 635.500 1366.212 646.750 M 883.999 675.201 C 883.724 689.337, 883.846 700.557, 884.268 700.134 C 884.690 699.710, 884.915 688.145, 884.767 674.432 L 884.497 649.500 883.999 675.201 M 1365.997 685.203 C 1365.724 693.839, 1365.850 700.555, 1366.278 700.125 C 1366.705 699.696, 1366.929 692.630, 1366.775 684.422 L 1366.494 669.500 1365.997 685.203" stroke="none" fill="#e4252d" fill-rule="evenodd"/><path d="M 439 427.448 L 439 450.895 444.163 451.198 L 449.326 451.500 470.414 525.500 L 491.501 599.500 515.432 599.500 L 539.363 599.500 549.172 563.528 C 554.567 543.744, 559.121 527.136, 559.293 526.621 C 559.464 526.107, 564.129 542.294, 569.659 562.593 L 579.714 599.500 603.197 599.768 L 626.681 600.035 635.710 568.768 C 640.677 551.570, 650.311 518.043, 657.120 494.262 L 669.500 451.024 674.750 451.012 L 680 451 680 427.500 L 680 404 649.500 404 L 619 404 619 427.450 L 619 450.900 624.341 451.200 L 629.682 451.500 621.139 491.250 C 616.440 513.112, 612.315 531, 611.972 531 C 611.378 531, 590 454.266, 590 452.132 C 590 451.567, 592.362 450.969, 595.250 450.802 L 600.500 450.500 600.500 427.500 L 600.500 404.500 567.750 404.236 L 535 403.973 535 427.436 L 535 450.900 540.289 451.200 L 545.579 451.500 534.852 491 C 528.953 512.725, 523.975 531.175, 523.791 532 C 523.606 532.825, 519.723 515.950, 515.161 494.500 C 510.599 473.050, 506.622 454.488, 506.325 453.250 C 505.812 451.120, 506.082 451, 511.392 451 L 517 451 517 427.500 L 517 404 478 404 L 439 404 439 427.448 M 691 427.500 L 691 451 697 451 L 703 451 703 500.950 L 703 550.900 697.250 551.200 L 691.500 551.500 691.232 574.750 L 690.963 598 730.982 598 L 771 598 771 574.500 L 771 551 766 551 L 761 551 761 535.500 L 761 520 778.500 520 L 796 520 796 535.445 L 796 550.890 791.250 551.195 L 786.500 551.500 786.232 574.750 L 785.963 598 826 598 L 866.037 598 865.768 574.750 L 865.500 551.500 860.250 551.198 L 855 550.895 855 500.948 L 855 451 860.500 451 L 866 451 866 427.500 L 866 404 826 404 L 786 404 786 427.500 L 786 451 791 451 L 796 451 796 465.500 L 796 480 778.500 480 L 761 480 761 465.500 L 761 451 766 451 L 771 451 771 427.500 L 771 404 731 404 L 691 404 691 427.500 M 882 427.500 L 882 451 888 451 L 894 451 894.020 493.750 C 894.039 535.888, 894.512 544.173, 897.626 557 C 902.844 578.497, 916.594 593.081, 936.870 598.628 C 945.830 601.079, 964.301 601.579, 973.153 599.609 C 993.614 595.057, 1008.427 581.207, 1014.445 561 C 1018.304 548.045, 1018.988 537.934, 1018.994 493.750 L 1019 451 1025 451 L 1031 451 1031 427.484 L 1031 403.969 1002.750 404.234 L 974.500 404.500 974.232 427.750 L 973.963 451 977.982 451 L 982 451 982 490.928 C 982 530.764, 981.204 543.771, 978.438 549.120 C 976.104 553.633, 972.241 556, 967.210 556 C 963.263 556, 962.224 555.510, 959.009 552.131 C 953.137 545.957, 952.738 542.517, 952.248 493.750 L 951.818 451 955.409 451 L 959 451 959 427.500 L 959 404 920.500 404 L 882 404 882 427.500 M 1039 427.488 L 1039 451 1044.304 451 L 1049.607 451 1070.461 524.250 C 1081.930 564.538, 1091.517 598.063, 1091.764 598.750 C 1092.107 599.702, 1097.862 600, 1115.920 600 L 1139.627 600 1149.563 563.509 C 1155.028 543.440, 1159.725 527.016, 1160 527.012 C 1160.275 527.008, 1163.615 538.592, 1167.422 552.753 C 1171.229 566.914, 1175.676 583.346, 1177.304 589.268 L 1180.265 600.036 1203.785 599.768 L 1227.305 599.500 1247.588 529 C 1258.744 490.225, 1268.361 456.836, 1268.960 454.801 C 1270.018 451.209, 1270.199 451.094, 1275.275 450.801 L 1280.500 450.500 1280.500 427.500 L 1280.500 404.500 1250 404.500 L 1219.500 404.500 1219.500 427.500 L 1219.500 450.500 1224.750 450.802 C 1227.638 450.969, 1230 451.324, 1230 451.592 C 1230 452.139, 1213.090 531.008, 1212.680 532.374 C 1212.536 532.854, 1207.575 515.529, 1201.657 493.874 C 1195.739 472.218, 1190.665 453.712, 1190.381 452.750 C 1189.933 451.231, 1190.601 451, 1195.433 451 L 1201 451 1201 427.500 L 1201 404 1168 404 L 1135 404 1135 427.500 L 1135 451 1140.567 451 C 1145.398 451, 1146.067 451.232, 1145.623 452.750 C 1145.341 453.712, 1140.578 471.375, 1135.038 492 C 1129.498 512.625, 1124.693 530.175, 1124.361 531 C 1124.029 531.825, 1119.853 514.275, 1115.083 492 L 1106.408 451.500 1111.954 451 L 1117.500 450.500 1117.500 427.500 L 1117.500 404.500 1078.250 404.238 L 1039 403.977 1039 427.488 M 1292 427.489 L 1292 451 1297.500 451 L 1303 451 1303 501 L 1303 551 1297.500 551 L 1292 551 1292 574.500 L 1292 598 1332.018 598 L 1372.037 598 1371.768 574.750 L 1371.500 551.500 1366.750 551.195 L 1362 550.890 1362 535.445 L 1362 520 1379 520 L 1396 520 1396 535.500 L 1396 551 1391.500 551 L 1387 551 1387 574.500 L 1387 598 1426.500 598 L 1466 598 1466 574.500 L 1466 551 1460.500 551 L 1455 551 1455 501 L 1455 451 1460.500 451 L 1466 451 1466 427.500 L 1466 404 1426.500 404 L 1387 404 1387 427.500 L 1387 451 1391.500 451 L 1396 451 1396 465.500 L 1396 480 1379 480 L 1362 480 1362 465.555 L 1362 451.110 1366.750 450.805 L 1371.500 450.500 1371.500 427.500 L 1371.500 404.500 1331.750 404.239 L 1292 403.977 1292 427.489 M 1482.667 404.667 C 1482.300 405.033, 1482 415.608, 1482 428.167 L 1482 451 1488 451 L 1494 451 1494 489.326 C 1494 541.334, 1495.640 555.620, 1503.434 571.500 C 1509.978 584.833, 1519.400 592.779, 1534.422 597.631 C 1545.125 601.088, 1564.045 602.017, 1574.356 599.592 C 1595.705 594.571, 1610.371 579.521, 1615.864 557 C 1619.195 543.347, 1620 530.182, 1620 489.394 L 1620 451 1626 451 L 1632 451 1632 427.500 L 1632 404 1603.500 404 L 1575 404 1575 427.500 L 1575 451 1578.555 451 L 1582.110 451 1581.805 497.250 C 1581.512 541.700, 1581.419 543.675, 1579.413 548 C 1576.792 553.649, 1575.103 555.042, 1570.058 555.719 C 1565.049 556.391, 1560.572 554.612, 1557.928 550.899 C 1553.689 544.946, 1553.036 537.212, 1553.017 492.750 L 1553 451 1556.500 451 L 1560 451 1560 427.500 L 1560 404 1521.667 404 C 1500.583 404, 1483.033 404.300, 1482.667 404.667 M 1649 427.500 L 1649 451 1655 451 L 1661 451 1661 501 L 1661 551 1655 551 L 1649 551 1649 574.586 L 1649 598.171 1700.250 597.758 C 1755.126 597.315, 1761.465 596.794, 1773.500 591.730 C 1783.573 587.492, 1795.780 577.345, 1802.719 567.443 C 1805.860 562.961, 1811.874 550.680, 1814.117 544.166 C 1825.383 511.454, 1821.814 469.972, 1805.311 441.813 C 1797.751 428.914, 1782.799 416.115, 1769 410.730 C 1754.836 405.203, 1740.598 404.002, 1689.250 404.001 L 1649 404 1649 427.500 M 1719 500.979 L 1719 551.245 1727.750 550.801 C 1745.322 549.911, 1752.329 542.187, 1755.982 519.678 C 1758.575 503.704, 1756.318 477.991, 1751.347 466.863 C 1746.673 456.402, 1739.985 452.153, 1726.768 451.247 L 1719 450.714 1719 500.979 M 736 624 L 730.500 624.500 715.239 661 C 706.845 681.075, 700.098 698.157, 700.245 698.960 C 700.792 701.949, 715.598 702.507, 717.837 699.623 C 718.317 699.006, 719.975 695.227, 721.521 691.228 L 724.334 683.955 741.860 684.228 L 759.387 684.500 762.591 692.500 C 765.680 700.212, 765.934 700.526, 769.648 701.227 C 771.766 701.627, 776.087 701.695, 779.250 701.379 C 784.026 700.901, 785 700.482, 785 698.908 C 785 696.915, 755.621 626.178, 754.278 624.936 C 753.199 623.939, 742.625 623.398, 736 624 M 1059.500 624.812 C 1040.622 630.408, 1030.431 642.627, 1029.248 661.085 C 1027.924 681.754, 1040.167 696.784, 1061.794 701.039 C 1074.919 703.622, 1103.494 700.594, 1106.750 696.276 C 1107.638 695.098, 1108 689.619, 1108 677.380 C 1108 662.939, 1107.741 659.884, 1106.406 658.549 C 1105.045 657.188, 1102.225 656.995, 1087.156 657.227 L 1069.500 657.500 1069.500 663 L 1069.500 668.500 1079.250 668.786 L 1089 669.072 1089 677.938 L 1089 686.804 1085.851 687.902 C 1077.353 690.865, 1063.384 688.149, 1056.876 682.269 C 1051.968 677.835, 1050.098 674.357, 1049.020 667.654 C 1047.386 657.505, 1051.076 647.074, 1058.212 641.669 C 1066.912 635.081, 1083.579 634.165, 1097.738 639.497 C 1101.719 640.996, 1105.657 641.962, 1106.488 641.643 C 1107.558 641.232, 1108 639.603, 1108 636.070 C 1108 630.051, 1106.275 628.086, 1098.711 625.491 C 1090.911 622.816, 1067.598 622.412, 1059.500 624.812 M 1248.680 624.054 C 1246.030 624.358, 1243.555 625.076, 1243.180 625.648 C 1242.806 626.220, 1236.650 633.763, 1229.500 642.409 L 1216.500 658.130 1216 641.315 L 1215.500 624.500 1206.500 624.500 L 1197.500 624.500 1197.500 662.500 L 1197.500 700.500 1202 701.116 C 1204.475 701.455, 1208.525 701.450, 1211 701.105 L 1215.500 700.478 1216 681.831 L 1216.500 663.185 1229.500 680.153 C 1236.650 689.485, 1243.047 697.833, 1243.715 698.704 C 1246.349 702.135, 1264.112 702.373, 1264.764 698.986 C 1264.922 698.165, 1259.178 690.070, 1251.999 680.997 C 1244.820 671.924, 1238.069 663.320, 1236.996 661.878 L 1235.046 659.256 1249.066 643.927 C 1264.816 626.708, 1265.649 624.850, 1258 624 C 1255.525 623.725, 1251.331 623.749, 1248.680 624.054 M 1660.680 624.054 C 1658.030 624.358, 1655.555 625.076, 1655.180 625.648 C 1654.806 626.220, 1648.650 633.763, 1641.500 642.409 L 1628.500 658.130 1628 641.315 L 1627.500 624.500 1618.500 624.500 L 1609.500 624.500 1609.500 662.500 L 1609.500 700.500 1614 701.116 C 1616.475 701.455, 1620.525 701.450, 1623 701.105 L 1627.500 700.478 1628 681.819 L 1628.500 663.160 1642.500 681.580 C 1650.200 691.711, 1657.400 700.294, 1658.500 700.654 C 1661.616 701.674, 1675.055 701.345, 1676.179 700.221 C 1677.690 698.710, 1676.102 696.269, 1661.716 678 C 1654.569 668.925, 1648.336 661.005, 1647.864 660.401 C 1647.312 659.694, 1652.017 653.821, 1661.046 643.950 C 1676.817 626.707, 1677.650 624.850, 1670 624 C 1667.525 623.725, 1663.331 623.749, 1660.680 624.054 M 602.703 624.631 C 602.316 625.017, 602 638.483, 602 654.556 C 602 681.247, 601.843 683.972, 600.193 686.010 C 598.166 688.513, 591.781 689.024, 587.975 686.986 C 584.313 685.027, 582.998 686.414, 583.015 692.219 C 583.024 695.123, 583.393 698.071, 583.836 698.768 C 585.066 700.706, 590.774 702, 598.094 702 C 609.395 702, 616.624 698.195, 619.437 690.767 C 620.823 687.108, 621.014 682.079, 620.777 655.500 L 620.500 624.500 611.953 624.214 C 607.252 624.057, 603.089 624.244, 602.703 624.631 M 869.195 625.663 L 866.953 627.500 867.227 663.973 L 867.500 700.445 871.500 701.117 C 873.700 701.486, 877.300 701.491, 879.500 701.128 L 883.500 700.467 884 671.594 C 884.491 643.219, 884.530 642.784, 886.245 646.384 C 889.784 653.813, 917.311 696.083, 920.183 698.501 C 922.825 700.724, 924.064 701, 931.386 701 C 944.512 701, 943.451 704.296, 943.787 662.478 C 943.995 636.516, 943.758 626.413, 942.914 625.397 C 941.284 623.432, 928.686 623.469, 927.047 625.443 C 926.166 626.505, 925.935 633.716, 926.175 652.748 L 926.500 678.610 920.452 668.555 C 908.792 649.168, 896.669 630.472, 893.830 627.500 C 891.087 624.627, 890.551 624.486, 881.201 624.163 C 872.885 623.876, 871.104 624.099, 869.195 625.663 M 1348.729 625.747 C 1347.114 627.532, 1346.996 630.569, 1347.237 664.093 L 1347.500 700.500 1352 701.116 C 1354.475 701.455, 1358.525 701.450, 1361 701.105 L 1365.500 700.477 1365.776 685.239 L 1366.052 670 1371.949 670 C 1380.172 670, 1382.417 672.179, 1390.426 687.928 L 1396.952 700.764 1402.226 701.344 C 1409.121 702.103, 1415.386 700.951, 1415.791 698.849 C 1416.139 697.039, 1406.165 677.354, 1402.271 672.165 C 1400.895 670.331, 1398.490 668.052, 1396.927 667.102 L 1394.086 665.374 1399.449 662.744 C 1407.286 658.901, 1410.372 654.364, 1410.765 646.110 C 1411.213 636.690, 1408.725 632.665, 1399.572 628 L 1392.705 624.500 1371.594 624.154 C 1351.735 623.829, 1350.379 623.923, 1348.729 625.747 M 1500.471 625.215 C 1500.198 625.926, 1500.093 643.151, 1500.237 663.492 L 1500.500 700.476 1505 701.104 C 1507.475 701.449, 1511.525 701.455, 1514 701.116 L 1518.500 700.500 1518.500 662.500 L 1518.500 624.500 1509.734 624.211 C 1503.272 623.998, 1500.837 624.262, 1500.471 625.215 M 1366 647.149 L 1366 658.297 1374.584 657.691 C 1384.815 656.969, 1388.987 654.965, 1390.619 649.988 C 1393.597 640.907, 1387.348 636.018, 1372.750 636.006 L 1366 636 1366 647.149 M 735.322 654.805 L 729.201 670.500 741.235 670.782 C 747.854 670.937, 753.437 670.897, 753.641 670.692 C 753.946 670.387, 742.336 640.003, 741.654 639.320 C 741.538 639.204, 738.688 646.172, 735.322 654.805" stroke="none" fill="#2d358c" fill-rule="evenodd"/></svg>